M48
;DRILL file {KiCad 4.0.6} date 12/07/17 13:55:52
;FORMAT={-:-/ absolute / metric / decimal}
FMAT,2
METRIC,TZ
T1C0.400
T2C1.000
%
G90
G05
M71
T1
X135.5Y-86.3
X138.2Y-87.5
X138.2Y-90.7
X138.2Y-92.3
X145.2Y-77.6
X146.3Y-77.7
X146.7Y-89.9
X146.7Y-91.5
X149.2Y-87.1
X149.3Y-92.1
X151.5Y-74.9
X154.3Y-80.8
X154.3Y-95.95
X156.4Y-73.4
X159.3Y-79.
T2
X135.3Y-98.56
X135.3Y-101.1
X135.3Y-103.64
X137.84Y-98.56
X137.84Y-101.1
X137.84Y-103.64
X146.4Y-102.4
X148.94Y-102.4
X151.48Y-102.4
X154.02Y-102.4
X156.56Y-102.4
X159.1Y-102.4
X159.7Y-84.
X159.7Y-86.54
T0
M30
