G04 #@! TF.FileFunction,Legend,Top*
%FSLAX46Y46*%
G04 Gerber Fmt 4.6, Leading zero omitted, Abs format (unit mm)*
G04 Created by KiCad (PCBNEW 4.0.6) date 12/07/17 13:55:48*
%MOMM*%
%LPD*%
G01*
G04 APERTURE LIST*
%ADD10C,0.100000*%
%ADD11C,0.120000*%
%ADD12C,0.150000*%
%ADD13C,0.050000*%
G04 APERTURE END LIST*
D10*
D11*
X134650000Y-86800000D02*
X134650000Y-87800000D01*
X136350000Y-87800000D02*
X136350000Y-86800000D01*
X158450000Y-79500000D02*
X158450000Y-80500000D01*
X160150000Y-80500000D02*
X160150000Y-79500000D01*
X150150000Y-91600000D02*
X150150000Y-90600000D01*
X148450000Y-90600000D02*
X148450000Y-91600000D01*
X141750000Y-100000000D02*
X141750000Y-101000000D01*
X143450000Y-101000000D02*
X143450000Y-100000000D01*
X155550000Y-73900000D02*
X155550000Y-74900000D01*
X157250000Y-74900000D02*
X157250000Y-73900000D01*
X150650000Y-75400000D02*
X150650000Y-76400000D01*
X152350000Y-76400000D02*
X152350000Y-75400000D01*
X145070000Y-101070000D02*
X145070000Y-103730000D01*
X157830000Y-101070000D02*
X145070000Y-101070000D01*
X157830000Y-103730000D02*
X145070000Y-103730000D01*
X157830000Y-101070000D02*
X157830000Y-103730000D01*
X159100000Y-101070000D02*
X160430000Y-101070000D01*
X160430000Y-101070000D02*
X160430000Y-102400000D01*
X133970000Y-104970000D02*
X139170000Y-104970000D01*
X133970000Y-99830000D02*
X133970000Y-104970000D01*
X139170000Y-97230000D02*
X139170000Y-104970000D01*
X133970000Y-99830000D02*
X136570000Y-99830000D01*
X136570000Y-99830000D02*
X136570000Y-97230000D01*
X136570000Y-97230000D02*
X139170000Y-97230000D01*
X133970000Y-98560000D02*
X133970000Y-97230000D01*
X133970000Y-97230000D02*
X135300000Y-97230000D01*
X151380000Y-97250000D02*
X151380000Y-98450000D01*
X149620000Y-98450000D02*
X149620000Y-97250000D01*
X140620000Y-82850000D02*
X140620000Y-81650000D01*
X142380000Y-81650000D02*
X142380000Y-82850000D01*
X137480000Y-81650000D02*
X137480000Y-82850000D01*
X135720000Y-82850000D02*
X135720000Y-81650000D01*
X140850000Y-96220000D02*
X142050000Y-96220000D01*
X142050000Y-97980000D02*
X140850000Y-97980000D01*
X145620000Y-82750000D02*
X145620000Y-81550000D01*
X147380000Y-81550000D02*
X147380000Y-82750000D01*
X144780000Y-81550000D02*
X144780000Y-82750000D01*
X143020000Y-82750000D02*
X143020000Y-81550000D01*
X139980000Y-81550000D02*
X139980000Y-82750000D01*
X138220000Y-82750000D02*
X138220000Y-81550000D01*
X155910000Y-80600000D02*
X155910000Y-78800000D01*
X152690000Y-78800000D02*
X152690000Y-81250000D01*
D12*
X146075000Y-93925000D02*
X146075000Y-93700000D01*
X138825000Y-93925000D02*
X138825000Y-93600000D01*
X138825000Y-86675000D02*
X138825000Y-87000000D01*
X146075000Y-86675000D02*
X146075000Y-87000000D01*
X146075000Y-93925000D02*
X145750000Y-93925000D01*
X146075000Y-86675000D02*
X145750000Y-86675000D01*
X138825000Y-86675000D02*
X139150000Y-86675000D01*
X138825000Y-93925000D02*
X139150000Y-93925000D01*
X146075000Y-93700000D02*
X147500000Y-93700000D01*
D10*
X148500000Y-85600000D02*
X148500000Y-88600000D01*
X148500000Y-88600000D02*
X149900000Y-88600000D01*
X149900000Y-88600000D02*
X149900000Y-85600000D01*
X149900000Y-85600000D02*
X148500000Y-85600000D01*
D13*
X133600000Y-76500000D02*
X133600000Y-72200000D01*
X149900000Y-76500000D02*
X133600000Y-76500000D01*
X149900000Y-72200000D02*
X149900000Y-76500000D01*
D10*
X150275000Y-72200000D02*
X150275000Y-71100000D01*
X133125000Y-72200000D02*
X133125000Y-71100000D01*
X150275000Y-72200000D02*
X133125000Y-72200000D01*
X150275000Y-71100000D02*
X133125000Y-71100000D01*
D11*
X157550000Y-86225000D02*
X157550000Y-95825000D01*
X151050000Y-86225000D02*
X151050000Y-95825000D01*
X157550000Y-86225000D02*
X151050000Y-86225000D01*
X161030000Y-82670000D02*
X158370000Y-82670000D01*
X161030000Y-85270000D02*
X161030000Y-82670000D01*
X158370000Y-85270000D02*
X158370000Y-82670000D01*
X161030000Y-85270000D02*
X158370000Y-85270000D01*
X161030000Y-86540000D02*
X161030000Y-87870000D01*
X161030000Y-87870000D02*
X159700000Y-87870000D01*
D12*
X134357143Y-87466666D02*
X134404762Y-87514285D01*
X134452381Y-87657142D01*
X134452381Y-87752380D01*
X134404762Y-87895238D01*
X134309524Y-87990476D01*
X134214286Y-88038095D01*
X134023810Y-88085714D01*
X133880952Y-88085714D01*
X133690476Y-88038095D01*
X133595238Y-87990476D01*
X133500000Y-87895238D01*
X133452381Y-87752380D01*
X133452381Y-87657142D01*
X133500000Y-87514285D01*
X133547619Y-87466666D01*
X134452381Y-86514285D02*
X134452381Y-87085714D01*
X134452381Y-86800000D02*
X133452381Y-86800000D01*
X133595238Y-86895238D01*
X133690476Y-86990476D01*
X133738095Y-87085714D01*
X158157143Y-80166666D02*
X158204762Y-80214285D01*
X158252381Y-80357142D01*
X158252381Y-80452380D01*
X158204762Y-80595238D01*
X158109524Y-80690476D01*
X158014286Y-80738095D01*
X157823810Y-80785714D01*
X157680952Y-80785714D01*
X157490476Y-80738095D01*
X157395238Y-80690476D01*
X157300000Y-80595238D01*
X157252381Y-80452380D01*
X157252381Y-80357142D01*
X157300000Y-80214285D01*
X157347619Y-80166666D01*
X157347619Y-79785714D02*
X157300000Y-79738095D01*
X157252381Y-79642857D01*
X157252381Y-79404761D01*
X157300000Y-79309523D01*
X157347619Y-79261904D01*
X157442857Y-79214285D01*
X157538095Y-79214285D01*
X157680952Y-79261904D01*
X158252381Y-79833333D01*
X158252381Y-79214285D01*
X149233334Y-94257143D02*
X149185715Y-94304762D01*
X149042858Y-94352381D01*
X148947620Y-94352381D01*
X148804762Y-94304762D01*
X148709524Y-94209524D01*
X148661905Y-94114286D01*
X148614286Y-93923810D01*
X148614286Y-93780952D01*
X148661905Y-93590476D01*
X148709524Y-93495238D01*
X148804762Y-93400000D01*
X148947620Y-93352381D01*
X149042858Y-93352381D01*
X149185715Y-93400000D01*
X149233334Y-93447619D01*
X149566667Y-93352381D02*
X150185715Y-93352381D01*
X149852381Y-93733333D01*
X149995239Y-93733333D01*
X150090477Y-93780952D01*
X150138096Y-93828571D01*
X150185715Y-93923810D01*
X150185715Y-94161905D01*
X150138096Y-94257143D01*
X150090477Y-94304762D01*
X149995239Y-94352381D01*
X149709524Y-94352381D01*
X149614286Y-94304762D01*
X149566667Y-94257143D01*
X141457143Y-100666666D02*
X141504762Y-100714285D01*
X141552381Y-100857142D01*
X141552381Y-100952380D01*
X141504762Y-101095238D01*
X141409524Y-101190476D01*
X141314286Y-101238095D01*
X141123810Y-101285714D01*
X140980952Y-101285714D01*
X140790476Y-101238095D01*
X140695238Y-101190476D01*
X140600000Y-101095238D01*
X140552381Y-100952380D01*
X140552381Y-100857142D01*
X140600000Y-100714285D01*
X140647619Y-100666666D01*
X140885714Y-99809523D02*
X141552381Y-99809523D01*
X140504762Y-100047619D02*
X141219048Y-100285714D01*
X141219048Y-99666666D01*
X156133334Y-72257143D02*
X156085715Y-72304762D01*
X155942858Y-72352381D01*
X155847620Y-72352381D01*
X155704762Y-72304762D01*
X155609524Y-72209524D01*
X155561905Y-72114286D01*
X155514286Y-71923810D01*
X155514286Y-71780952D01*
X155561905Y-71590476D01*
X155609524Y-71495238D01*
X155704762Y-71400000D01*
X155847620Y-71352381D01*
X155942858Y-71352381D01*
X156085715Y-71400000D01*
X156133334Y-71447619D01*
X157038096Y-71352381D02*
X156561905Y-71352381D01*
X156514286Y-71828571D01*
X156561905Y-71780952D01*
X156657143Y-71733333D01*
X156895239Y-71733333D01*
X156990477Y-71780952D01*
X157038096Y-71828571D01*
X157085715Y-71923810D01*
X157085715Y-72161905D01*
X157038096Y-72257143D01*
X156990477Y-72304762D01*
X156895239Y-72352381D01*
X156657143Y-72352381D01*
X156561905Y-72304762D01*
X156514286Y-72257143D01*
X151333334Y-73657143D02*
X151285715Y-73704762D01*
X151142858Y-73752381D01*
X151047620Y-73752381D01*
X150904762Y-73704762D01*
X150809524Y-73609524D01*
X150761905Y-73514286D01*
X150714286Y-73323810D01*
X150714286Y-73180952D01*
X150761905Y-72990476D01*
X150809524Y-72895238D01*
X150904762Y-72800000D01*
X151047620Y-72752381D01*
X151142858Y-72752381D01*
X151285715Y-72800000D01*
X151333334Y-72847619D01*
X152190477Y-72752381D02*
X152000000Y-72752381D01*
X151904762Y-72800000D01*
X151857143Y-72847619D01*
X151761905Y-72990476D01*
X151714286Y-73180952D01*
X151714286Y-73561905D01*
X151761905Y-73657143D01*
X151809524Y-73704762D01*
X151904762Y-73752381D01*
X152095239Y-73752381D01*
X152190477Y-73704762D01*
X152238096Y-73657143D01*
X152285715Y-73561905D01*
X152285715Y-73323810D01*
X152238096Y-73228571D01*
X152190477Y-73180952D01*
X152095239Y-73133333D01*
X151904762Y-73133333D01*
X151809524Y-73180952D01*
X151761905Y-73228571D01*
X151714286Y-73323810D01*
X159566667Y-104352381D02*
X159566667Y-105066667D01*
X159519047Y-105209524D01*
X159423809Y-105304762D01*
X159280952Y-105352381D01*
X159185714Y-105352381D01*
X160566667Y-105352381D02*
X159995238Y-105352381D01*
X160280952Y-105352381D02*
X160280952Y-104352381D01*
X160185714Y-104495238D01*
X160090476Y-104590476D01*
X159995238Y-104638095D01*
X134466667Y-95752381D02*
X134466667Y-96466667D01*
X134419047Y-96609524D01*
X134323809Y-96704762D01*
X134180952Y-96752381D01*
X134085714Y-96752381D01*
X134895238Y-95847619D02*
X134942857Y-95800000D01*
X135038095Y-95752381D01*
X135276191Y-95752381D01*
X135371429Y-95800000D01*
X135419048Y-95847619D01*
X135466667Y-95942857D01*
X135466667Y-96038095D01*
X135419048Y-96180952D01*
X134847619Y-96752381D01*
X135466667Y-96752381D01*
X151452381Y-98683333D02*
X152166667Y-98683333D01*
X152309524Y-98730953D01*
X152404762Y-98826191D01*
X152452381Y-98969048D01*
X152452381Y-99064286D01*
X152452381Y-98207143D02*
X151452381Y-98207143D01*
X151452381Y-97826190D01*
X151500000Y-97730952D01*
X151547619Y-97683333D01*
X151642857Y-97635714D01*
X151785714Y-97635714D01*
X151880952Y-97683333D01*
X151928571Y-97730952D01*
X151976190Y-97826190D01*
X151976190Y-98207143D01*
X152452381Y-96683333D02*
X152452381Y-97254762D01*
X152452381Y-96969048D02*
X151452381Y-96969048D01*
X151595238Y-97064286D01*
X151690476Y-97159524D01*
X151738095Y-97254762D01*
X143733334Y-84752381D02*
X143257143Y-84752381D01*
X143257143Y-83752381D01*
X144590477Y-84752381D02*
X144019048Y-84752381D01*
X144304762Y-84752381D02*
X144304762Y-83752381D01*
X144209524Y-83895238D01*
X144114286Y-83990476D01*
X144019048Y-84038095D01*
X136433334Y-84852381D02*
X135957143Y-84852381D01*
X135957143Y-83852381D01*
X136719048Y-83947619D02*
X136766667Y-83900000D01*
X136861905Y-83852381D01*
X137100001Y-83852381D01*
X137195239Y-83900000D01*
X137242858Y-83947619D01*
X137290477Y-84042857D01*
X137290477Y-84138095D01*
X137242858Y-84280952D01*
X136671429Y-84852381D01*
X137290477Y-84852381D01*
X143833334Y-97552381D02*
X143500000Y-97076190D01*
X143261905Y-97552381D02*
X143261905Y-96552381D01*
X143642858Y-96552381D01*
X143738096Y-96600000D01*
X143785715Y-96647619D01*
X143833334Y-96742857D01*
X143833334Y-96885714D01*
X143785715Y-96980952D01*
X143738096Y-97028571D01*
X143642858Y-97076190D01*
X143261905Y-97076190D01*
X144785715Y-97552381D02*
X144214286Y-97552381D01*
X144500000Y-97552381D02*
X144500000Y-96552381D01*
X144404762Y-96695238D01*
X144309524Y-96790476D01*
X144214286Y-96838095D01*
X146333334Y-84852381D02*
X146000000Y-84376190D01*
X145761905Y-84852381D02*
X145761905Y-83852381D01*
X146142858Y-83852381D01*
X146238096Y-83900000D01*
X146285715Y-83947619D01*
X146333334Y-84042857D01*
X146333334Y-84185714D01*
X146285715Y-84280952D01*
X146238096Y-84328571D01*
X146142858Y-84376190D01*
X145761905Y-84376190D01*
X146714286Y-83947619D02*
X146761905Y-83900000D01*
X146857143Y-83852381D01*
X147095239Y-83852381D01*
X147190477Y-83900000D01*
X147238096Y-83947619D01*
X147285715Y-84042857D01*
X147285715Y-84138095D01*
X147238096Y-84280952D01*
X146666667Y-84852381D01*
X147285715Y-84852381D01*
X141333334Y-84852381D02*
X141000000Y-84376190D01*
X140761905Y-84852381D02*
X140761905Y-83852381D01*
X141142858Y-83852381D01*
X141238096Y-83900000D01*
X141285715Y-83947619D01*
X141333334Y-84042857D01*
X141333334Y-84185714D01*
X141285715Y-84280952D01*
X141238096Y-84328571D01*
X141142858Y-84376190D01*
X140761905Y-84376190D01*
X141666667Y-83852381D02*
X142285715Y-83852381D01*
X141952381Y-84233333D01*
X142095239Y-84233333D01*
X142190477Y-84280952D01*
X142238096Y-84328571D01*
X142285715Y-84423810D01*
X142285715Y-84661905D01*
X142238096Y-84757143D01*
X142190477Y-84804762D01*
X142095239Y-84852381D01*
X141809524Y-84852381D01*
X141714286Y-84804762D01*
X141666667Y-84757143D01*
X138933334Y-84752381D02*
X138600000Y-84276190D01*
X138361905Y-84752381D02*
X138361905Y-83752381D01*
X138742858Y-83752381D01*
X138838096Y-83800000D01*
X138885715Y-83847619D01*
X138933334Y-83942857D01*
X138933334Y-84085714D01*
X138885715Y-84180952D01*
X138838096Y-84228571D01*
X138742858Y-84276190D01*
X138361905Y-84276190D01*
X139790477Y-84085714D02*
X139790477Y-84752381D01*
X139552381Y-83704762D02*
X139314286Y-84419048D01*
X139933334Y-84419048D01*
X150638095Y-79152381D02*
X150638095Y-79961905D01*
X150685714Y-80057143D01*
X150733333Y-80104762D01*
X150828571Y-80152381D01*
X151019048Y-80152381D01*
X151114286Y-80104762D01*
X151161905Y-80057143D01*
X151209524Y-79961905D01*
X151209524Y-79152381D01*
X152209524Y-80152381D02*
X151638095Y-80152381D01*
X151923809Y-80152381D02*
X151923809Y-79152381D01*
X151828571Y-79295238D01*
X151733333Y-79390476D01*
X151638095Y-79438095D01*
X146138095Y-94452381D02*
X146138095Y-95261905D01*
X146185714Y-95357143D01*
X146233333Y-95404762D01*
X146328571Y-95452381D01*
X146519048Y-95452381D01*
X146614286Y-95404762D01*
X146661905Y-95357143D01*
X146709524Y-95261905D01*
X146709524Y-94452381D01*
X147138095Y-94547619D02*
X147185714Y-94500000D01*
X147280952Y-94452381D01*
X147519048Y-94452381D01*
X147614286Y-94500000D01*
X147661905Y-94547619D01*
X147709524Y-94642857D01*
X147709524Y-94738095D01*
X147661905Y-94880952D01*
X147090476Y-95452381D01*
X147709524Y-95452381D01*
X148723809Y-84776190D02*
X148723809Y-85252381D01*
X148390476Y-84252381D02*
X148723809Y-84776190D01*
X149057143Y-84252381D01*
X149914286Y-85252381D02*
X149342857Y-85252381D01*
X149628571Y-85252381D02*
X149628571Y-84252381D01*
X149533333Y-84395238D01*
X149438095Y-84490476D01*
X149342857Y-84538095D01*
X147466667Y-77152381D02*
X147466667Y-77866667D01*
X147419047Y-78009524D01*
X147323809Y-78104762D01*
X147180952Y-78152381D01*
X147085714Y-78152381D01*
X147847619Y-77152381D02*
X148466667Y-77152381D01*
X148133333Y-77533333D01*
X148276191Y-77533333D01*
X148371429Y-77580952D01*
X148419048Y-77628571D01*
X148466667Y-77723810D01*
X148466667Y-77961905D01*
X148419048Y-78057143D01*
X148371429Y-78104762D01*
X148276191Y-78152381D01*
X147990476Y-78152381D01*
X147895238Y-78104762D01*
X147847619Y-78057143D01*
X159407143Y-92341666D02*
X159454762Y-92389285D01*
X159502381Y-92532142D01*
X159502381Y-92627380D01*
X159454762Y-92770238D01*
X159359524Y-92865476D01*
X159264286Y-92913095D01*
X159073810Y-92960714D01*
X158930952Y-92960714D01*
X158740476Y-92913095D01*
X158645238Y-92865476D01*
X158550000Y-92770238D01*
X158502381Y-92627380D01*
X158502381Y-92532142D01*
X158550000Y-92389285D01*
X158597619Y-92341666D01*
X158502381Y-92008333D02*
X158502381Y-91341666D01*
X159502381Y-91770238D01*
X159366667Y-88322381D02*
X159366667Y-89036667D01*
X159319047Y-89179524D01*
X159223809Y-89274762D01*
X159080952Y-89322381D01*
X158985714Y-89322381D01*
X160271429Y-88655714D02*
X160271429Y-89322381D01*
X160033333Y-88274762D02*
X159795238Y-88989048D01*
X160414286Y-88989048D01*
M02*
