G04 #@! TF.FileFunction,Copper,L2,Bot,Signal*
%FSLAX46Y46*%
G04 Gerber Fmt 4.6, Leading zero omitted, Abs format (unit mm)*
G04 Created by KiCad (PCBNEW 4.0.6) date 12/07/17 13:55:48*
%MOMM*%
%LPD*%
G01*
G04 APERTURE LIST*
%ADD10C,0.100000*%
%ADD11R,1.700000X1.700000*%
%ADD12O,1.700000X1.700000*%
%ADD13C,0.600000*%
%ADD14C,0.250000*%
%ADD15C,0.254000*%
G04 APERTURE END LIST*
D10*
D11*
X159100000Y-102400000D03*
D12*
X156560000Y-102400000D03*
X154020000Y-102400000D03*
X151480000Y-102400000D03*
X148940000Y-102400000D03*
X146400000Y-102400000D03*
D11*
X135300000Y-98560000D03*
D12*
X137840000Y-98560000D03*
X135300000Y-101100000D03*
X137840000Y-101100000D03*
X135300000Y-103640000D03*
X137840000Y-103640000D03*
D11*
X159700000Y-86540000D03*
D12*
X159700000Y-84000000D03*
D13*
X154300000Y-80800000D03*
X159300000Y-79000000D03*
X146300000Y-77700000D03*
X149200000Y-87100000D03*
X138200000Y-90700000D03*
X135500000Y-86300000D03*
X146700000Y-89900000D03*
X146700000Y-91500000D03*
X149300000Y-92100000D03*
X154300000Y-95950000D03*
X151500000Y-74900000D03*
X156400000Y-73400000D03*
X138200000Y-87500000D03*
X138200000Y-92300000D03*
X145200000Y-77600000D03*
D14*
X138200000Y-87500000D02*
X137675000Y-87500000D01*
X137675000Y-87500000D02*
X136664999Y-88510001D01*
X136664999Y-88510001D02*
X136664999Y-99924999D01*
X136990001Y-100250001D02*
X137840000Y-101100000D01*
X136664999Y-99924999D02*
X136990001Y-100250001D01*
X145200000Y-77600000D02*
X145200000Y-85300000D01*
X145200000Y-85300000D02*
X138200000Y-92300000D01*
D15*
G36*
X161290000Y-105290000D02*
X133710000Y-105290000D01*
X133710000Y-101100000D01*
X133785907Y-101100000D01*
X133898946Y-101668285D01*
X134220853Y-102150054D01*
X134550026Y-102370000D01*
X134220853Y-102589946D01*
X133898946Y-103071715D01*
X133785907Y-103640000D01*
X133898946Y-104208285D01*
X134220853Y-104690054D01*
X134702622Y-105011961D01*
X135270907Y-105125000D01*
X135329093Y-105125000D01*
X135897378Y-105011961D01*
X136379147Y-104690054D01*
X136570000Y-104404422D01*
X136760853Y-104690054D01*
X137242622Y-105011961D01*
X137810907Y-105125000D01*
X137869093Y-105125000D01*
X138437378Y-105011961D01*
X138919147Y-104690054D01*
X139241054Y-104208285D01*
X139354093Y-103640000D01*
X139241054Y-103071715D01*
X138919147Y-102589946D01*
X138591332Y-102370907D01*
X144915000Y-102370907D01*
X144915000Y-102429093D01*
X145028039Y-102997378D01*
X145349946Y-103479147D01*
X145831715Y-103801054D01*
X146400000Y-103914093D01*
X146968285Y-103801054D01*
X147450054Y-103479147D01*
X147670000Y-103149974D01*
X147889946Y-103479147D01*
X148371715Y-103801054D01*
X148940000Y-103914093D01*
X149508285Y-103801054D01*
X149990054Y-103479147D01*
X150210000Y-103149974D01*
X150429946Y-103479147D01*
X150911715Y-103801054D01*
X151480000Y-103914093D01*
X152048285Y-103801054D01*
X152530054Y-103479147D01*
X152750000Y-103149974D01*
X152969946Y-103479147D01*
X153451715Y-103801054D01*
X154020000Y-103914093D01*
X154588285Y-103801054D01*
X155070054Y-103479147D01*
X155290000Y-103149974D01*
X155509946Y-103479147D01*
X155991715Y-103801054D01*
X156560000Y-103914093D01*
X157128285Y-103801054D01*
X157610054Y-103479147D01*
X157639403Y-103435223D01*
X157711673Y-103609698D01*
X157890301Y-103788327D01*
X158123690Y-103885000D01*
X158814250Y-103885000D01*
X158973000Y-103726250D01*
X158973000Y-102527000D01*
X159227000Y-102527000D01*
X159227000Y-103726250D01*
X159385750Y-103885000D01*
X160076310Y-103885000D01*
X160309699Y-103788327D01*
X160488327Y-103609698D01*
X160585000Y-103376309D01*
X160585000Y-102685750D01*
X160426250Y-102527000D01*
X159227000Y-102527000D01*
X158973000Y-102527000D01*
X158953000Y-102527000D01*
X158953000Y-102273000D01*
X158973000Y-102273000D01*
X158973000Y-101073750D01*
X159227000Y-101073750D01*
X159227000Y-102273000D01*
X160426250Y-102273000D01*
X160585000Y-102114250D01*
X160585000Y-101423691D01*
X160488327Y-101190302D01*
X160309699Y-101011673D01*
X160076310Y-100915000D01*
X159385750Y-100915000D01*
X159227000Y-101073750D01*
X158973000Y-101073750D01*
X158814250Y-100915000D01*
X158123690Y-100915000D01*
X157890301Y-101011673D01*
X157711673Y-101190302D01*
X157639403Y-101364777D01*
X157610054Y-101320853D01*
X157128285Y-100998946D01*
X156560000Y-100885907D01*
X155991715Y-100998946D01*
X155509946Y-101320853D01*
X155290000Y-101650026D01*
X155070054Y-101320853D01*
X154588285Y-100998946D01*
X154020000Y-100885907D01*
X153451715Y-100998946D01*
X152969946Y-101320853D01*
X152750000Y-101650026D01*
X152530054Y-101320853D01*
X152048285Y-100998946D01*
X151480000Y-100885907D01*
X150911715Y-100998946D01*
X150429946Y-101320853D01*
X150210000Y-101650026D01*
X149990054Y-101320853D01*
X149508285Y-100998946D01*
X148940000Y-100885907D01*
X148371715Y-100998946D01*
X147889946Y-101320853D01*
X147670000Y-101650026D01*
X147450054Y-101320853D01*
X146968285Y-100998946D01*
X146400000Y-100885907D01*
X145831715Y-100998946D01*
X145349946Y-101320853D01*
X145028039Y-101802622D01*
X144915000Y-102370907D01*
X138591332Y-102370907D01*
X138589974Y-102370000D01*
X138919147Y-102150054D01*
X139241054Y-101668285D01*
X139354093Y-101100000D01*
X139241054Y-100531715D01*
X138919147Y-100049946D01*
X138589974Y-99830000D01*
X138919147Y-99610054D01*
X139241054Y-99128285D01*
X139354093Y-98560000D01*
X139241054Y-97991715D01*
X138919147Y-97509946D01*
X138437378Y-97188039D01*
X137869093Y-97075000D01*
X137810907Y-97075000D01*
X137424999Y-97151762D01*
X137424999Y-92847091D01*
X137669673Y-93092192D01*
X138013201Y-93234838D01*
X138385167Y-93235162D01*
X138728943Y-93093117D01*
X138992192Y-92830327D01*
X139134838Y-92486799D01*
X139134879Y-92439923D01*
X144749052Y-86825750D01*
X158215000Y-86825750D01*
X158215000Y-87516310D01*
X158311673Y-87749699D01*
X158490302Y-87928327D01*
X158723691Y-88025000D01*
X159414250Y-88025000D01*
X159573000Y-87866250D01*
X159573000Y-86667000D01*
X159827000Y-86667000D01*
X159827000Y-87866250D01*
X159985750Y-88025000D01*
X160676309Y-88025000D01*
X160909698Y-87928327D01*
X161088327Y-87749699D01*
X161185000Y-87516310D01*
X161185000Y-86825750D01*
X161026250Y-86667000D01*
X159827000Y-86667000D01*
X159573000Y-86667000D01*
X158373750Y-86667000D01*
X158215000Y-86825750D01*
X144749052Y-86825750D01*
X145737401Y-85837401D01*
X145902148Y-85590839D01*
X145960000Y-85300000D01*
X145960000Y-84000000D01*
X158185907Y-84000000D01*
X158298946Y-84568285D01*
X158620853Y-85050054D01*
X158664777Y-85079403D01*
X158490302Y-85151673D01*
X158311673Y-85330301D01*
X158215000Y-85563690D01*
X158215000Y-86254250D01*
X158373750Y-86413000D01*
X159573000Y-86413000D01*
X159573000Y-86393000D01*
X159827000Y-86393000D01*
X159827000Y-86413000D01*
X161026250Y-86413000D01*
X161185000Y-86254250D01*
X161185000Y-85563690D01*
X161088327Y-85330301D01*
X160909698Y-85151673D01*
X160735223Y-85079403D01*
X160779147Y-85050054D01*
X161101054Y-84568285D01*
X161214093Y-84000000D01*
X161101054Y-83431715D01*
X160779147Y-82949946D01*
X160297378Y-82628039D01*
X159729093Y-82515000D01*
X159670907Y-82515000D01*
X159102622Y-82628039D01*
X158620853Y-82949946D01*
X158298946Y-83431715D01*
X158185907Y-84000000D01*
X145960000Y-84000000D01*
X145960000Y-78162463D01*
X145992192Y-78130327D01*
X146134838Y-77786799D01*
X146135162Y-77414833D01*
X145993117Y-77071057D01*
X145730327Y-76807808D01*
X145386799Y-76665162D01*
X145014833Y-76664838D01*
X144671057Y-76806883D01*
X144407808Y-77069673D01*
X144265162Y-77413201D01*
X144264838Y-77785167D01*
X144406883Y-78128943D01*
X144440000Y-78162118D01*
X144440000Y-84985198D01*
X138060320Y-91364878D01*
X138014833Y-91364838D01*
X137671057Y-91506883D01*
X137424999Y-91752512D01*
X137424999Y-88824803D01*
X137873128Y-88376674D01*
X138013201Y-88434838D01*
X138385167Y-88435162D01*
X138728943Y-88293117D01*
X138992192Y-88030327D01*
X139134838Y-87686799D01*
X139135162Y-87314833D01*
X138993117Y-86971057D01*
X138730327Y-86707808D01*
X138386799Y-86565162D01*
X138014833Y-86564838D01*
X137671057Y-86706883D01*
X137628645Y-86749221D01*
X137384161Y-86797852D01*
X137137599Y-86962599D01*
X136127598Y-87972600D01*
X135962851Y-88219162D01*
X135904999Y-88510001D01*
X135904999Y-97075000D01*
X135585750Y-97075000D01*
X135427000Y-97233750D01*
X135427000Y-98433000D01*
X135447000Y-98433000D01*
X135447000Y-98687000D01*
X135427000Y-98687000D01*
X135427000Y-98707000D01*
X135173000Y-98707000D01*
X135173000Y-98687000D01*
X133973750Y-98687000D01*
X133815000Y-98845750D01*
X133815000Y-99536310D01*
X133911673Y-99769699D01*
X134090302Y-99948327D01*
X134264777Y-100020597D01*
X134220853Y-100049946D01*
X133898946Y-100531715D01*
X133785907Y-101100000D01*
X133710000Y-101100000D01*
X133710000Y-97583690D01*
X133815000Y-97583690D01*
X133815000Y-98274250D01*
X133973750Y-98433000D01*
X135173000Y-98433000D01*
X135173000Y-97233750D01*
X135014250Y-97075000D01*
X134323691Y-97075000D01*
X134090302Y-97171673D01*
X133911673Y-97350301D01*
X133815000Y-97583690D01*
X133710000Y-97583690D01*
X133710000Y-71710000D01*
X161290000Y-71710000D01*
X161290000Y-105290000D01*
X161290000Y-105290000D01*
G37*
X161290000Y-105290000D02*
X133710000Y-105290000D01*
X133710000Y-101100000D01*
X133785907Y-101100000D01*
X133898946Y-101668285D01*
X134220853Y-102150054D01*
X134550026Y-102370000D01*
X134220853Y-102589946D01*
X133898946Y-103071715D01*
X133785907Y-103640000D01*
X133898946Y-104208285D01*
X134220853Y-104690054D01*
X134702622Y-105011961D01*
X135270907Y-105125000D01*
X135329093Y-105125000D01*
X135897378Y-105011961D01*
X136379147Y-104690054D01*
X136570000Y-104404422D01*
X136760853Y-104690054D01*
X137242622Y-105011961D01*
X137810907Y-105125000D01*
X137869093Y-105125000D01*
X138437378Y-105011961D01*
X138919147Y-104690054D01*
X139241054Y-104208285D01*
X139354093Y-103640000D01*
X139241054Y-103071715D01*
X138919147Y-102589946D01*
X138591332Y-102370907D01*
X144915000Y-102370907D01*
X144915000Y-102429093D01*
X145028039Y-102997378D01*
X145349946Y-103479147D01*
X145831715Y-103801054D01*
X146400000Y-103914093D01*
X146968285Y-103801054D01*
X147450054Y-103479147D01*
X147670000Y-103149974D01*
X147889946Y-103479147D01*
X148371715Y-103801054D01*
X148940000Y-103914093D01*
X149508285Y-103801054D01*
X149990054Y-103479147D01*
X150210000Y-103149974D01*
X150429946Y-103479147D01*
X150911715Y-103801054D01*
X151480000Y-103914093D01*
X152048285Y-103801054D01*
X152530054Y-103479147D01*
X152750000Y-103149974D01*
X152969946Y-103479147D01*
X153451715Y-103801054D01*
X154020000Y-103914093D01*
X154588285Y-103801054D01*
X155070054Y-103479147D01*
X155290000Y-103149974D01*
X155509946Y-103479147D01*
X155991715Y-103801054D01*
X156560000Y-103914093D01*
X157128285Y-103801054D01*
X157610054Y-103479147D01*
X157639403Y-103435223D01*
X157711673Y-103609698D01*
X157890301Y-103788327D01*
X158123690Y-103885000D01*
X158814250Y-103885000D01*
X158973000Y-103726250D01*
X158973000Y-102527000D01*
X159227000Y-102527000D01*
X159227000Y-103726250D01*
X159385750Y-103885000D01*
X160076310Y-103885000D01*
X160309699Y-103788327D01*
X160488327Y-103609698D01*
X160585000Y-103376309D01*
X160585000Y-102685750D01*
X160426250Y-102527000D01*
X159227000Y-102527000D01*
X158973000Y-102527000D01*
X158953000Y-102527000D01*
X158953000Y-102273000D01*
X158973000Y-102273000D01*
X158973000Y-101073750D01*
X159227000Y-101073750D01*
X159227000Y-102273000D01*
X160426250Y-102273000D01*
X160585000Y-102114250D01*
X160585000Y-101423691D01*
X160488327Y-101190302D01*
X160309699Y-101011673D01*
X160076310Y-100915000D01*
X159385750Y-100915000D01*
X159227000Y-101073750D01*
X158973000Y-101073750D01*
X158814250Y-100915000D01*
X158123690Y-100915000D01*
X157890301Y-101011673D01*
X157711673Y-101190302D01*
X157639403Y-101364777D01*
X157610054Y-101320853D01*
X157128285Y-100998946D01*
X156560000Y-100885907D01*
X155991715Y-100998946D01*
X155509946Y-101320853D01*
X155290000Y-101650026D01*
X155070054Y-101320853D01*
X154588285Y-100998946D01*
X154020000Y-100885907D01*
X153451715Y-100998946D01*
X152969946Y-101320853D01*
X152750000Y-101650026D01*
X152530054Y-101320853D01*
X152048285Y-100998946D01*
X151480000Y-100885907D01*
X150911715Y-100998946D01*
X150429946Y-101320853D01*
X150210000Y-101650026D01*
X149990054Y-101320853D01*
X149508285Y-100998946D01*
X148940000Y-100885907D01*
X148371715Y-100998946D01*
X147889946Y-101320853D01*
X147670000Y-101650026D01*
X147450054Y-101320853D01*
X146968285Y-100998946D01*
X146400000Y-100885907D01*
X145831715Y-100998946D01*
X145349946Y-101320853D01*
X145028039Y-101802622D01*
X144915000Y-102370907D01*
X138591332Y-102370907D01*
X138589974Y-102370000D01*
X138919147Y-102150054D01*
X139241054Y-101668285D01*
X139354093Y-101100000D01*
X139241054Y-100531715D01*
X138919147Y-100049946D01*
X138589974Y-99830000D01*
X138919147Y-99610054D01*
X139241054Y-99128285D01*
X139354093Y-98560000D01*
X139241054Y-97991715D01*
X138919147Y-97509946D01*
X138437378Y-97188039D01*
X137869093Y-97075000D01*
X137810907Y-97075000D01*
X137424999Y-97151762D01*
X137424999Y-92847091D01*
X137669673Y-93092192D01*
X138013201Y-93234838D01*
X138385167Y-93235162D01*
X138728943Y-93093117D01*
X138992192Y-92830327D01*
X139134838Y-92486799D01*
X139134879Y-92439923D01*
X144749052Y-86825750D01*
X158215000Y-86825750D01*
X158215000Y-87516310D01*
X158311673Y-87749699D01*
X158490302Y-87928327D01*
X158723691Y-88025000D01*
X159414250Y-88025000D01*
X159573000Y-87866250D01*
X159573000Y-86667000D01*
X159827000Y-86667000D01*
X159827000Y-87866250D01*
X159985750Y-88025000D01*
X160676309Y-88025000D01*
X160909698Y-87928327D01*
X161088327Y-87749699D01*
X161185000Y-87516310D01*
X161185000Y-86825750D01*
X161026250Y-86667000D01*
X159827000Y-86667000D01*
X159573000Y-86667000D01*
X158373750Y-86667000D01*
X158215000Y-86825750D01*
X144749052Y-86825750D01*
X145737401Y-85837401D01*
X145902148Y-85590839D01*
X145960000Y-85300000D01*
X145960000Y-84000000D01*
X158185907Y-84000000D01*
X158298946Y-84568285D01*
X158620853Y-85050054D01*
X158664777Y-85079403D01*
X158490302Y-85151673D01*
X158311673Y-85330301D01*
X158215000Y-85563690D01*
X158215000Y-86254250D01*
X158373750Y-86413000D01*
X159573000Y-86413000D01*
X159573000Y-86393000D01*
X159827000Y-86393000D01*
X159827000Y-86413000D01*
X161026250Y-86413000D01*
X161185000Y-86254250D01*
X161185000Y-85563690D01*
X161088327Y-85330301D01*
X160909698Y-85151673D01*
X160735223Y-85079403D01*
X160779147Y-85050054D01*
X161101054Y-84568285D01*
X161214093Y-84000000D01*
X161101054Y-83431715D01*
X160779147Y-82949946D01*
X160297378Y-82628039D01*
X159729093Y-82515000D01*
X159670907Y-82515000D01*
X159102622Y-82628039D01*
X158620853Y-82949946D01*
X158298946Y-83431715D01*
X158185907Y-84000000D01*
X145960000Y-84000000D01*
X145960000Y-78162463D01*
X145992192Y-78130327D01*
X146134838Y-77786799D01*
X146135162Y-77414833D01*
X145993117Y-77071057D01*
X145730327Y-76807808D01*
X145386799Y-76665162D01*
X145014833Y-76664838D01*
X144671057Y-76806883D01*
X144407808Y-77069673D01*
X144265162Y-77413201D01*
X144264838Y-77785167D01*
X144406883Y-78128943D01*
X144440000Y-78162118D01*
X144440000Y-84985198D01*
X138060320Y-91364878D01*
X138014833Y-91364838D01*
X137671057Y-91506883D01*
X137424999Y-91752512D01*
X137424999Y-88824803D01*
X137873128Y-88376674D01*
X138013201Y-88434838D01*
X138385167Y-88435162D01*
X138728943Y-88293117D01*
X138992192Y-88030327D01*
X139134838Y-87686799D01*
X139135162Y-87314833D01*
X138993117Y-86971057D01*
X138730327Y-86707808D01*
X138386799Y-86565162D01*
X138014833Y-86564838D01*
X137671057Y-86706883D01*
X137628645Y-86749221D01*
X137384161Y-86797852D01*
X137137599Y-86962599D01*
X136127598Y-87972600D01*
X135962851Y-88219162D01*
X135904999Y-88510001D01*
X135904999Y-97075000D01*
X135585750Y-97075000D01*
X135427000Y-97233750D01*
X135427000Y-98433000D01*
X135447000Y-98433000D01*
X135447000Y-98687000D01*
X135427000Y-98687000D01*
X135427000Y-98707000D01*
X135173000Y-98707000D01*
X135173000Y-98687000D01*
X133973750Y-98687000D01*
X133815000Y-98845750D01*
X133815000Y-99536310D01*
X133911673Y-99769699D01*
X134090302Y-99948327D01*
X134264777Y-100020597D01*
X134220853Y-100049946D01*
X133898946Y-100531715D01*
X133785907Y-101100000D01*
X133710000Y-101100000D01*
X133710000Y-97583690D01*
X133815000Y-97583690D01*
X133815000Y-98274250D01*
X133973750Y-98433000D01*
X135173000Y-98433000D01*
X135173000Y-97233750D01*
X135014250Y-97075000D01*
X134323691Y-97075000D01*
X134090302Y-97171673D01*
X133911673Y-97350301D01*
X133815000Y-97583690D01*
X133710000Y-97583690D01*
X133710000Y-71710000D01*
X161290000Y-71710000D01*
X161290000Y-105290000D01*
M02*
