G04 #@! TF.FileFunction,Copper,L1,Top,Signal*
%FSLAX46Y46*%
G04 Gerber Fmt 4.6, Leading zero omitted, Abs format (unit mm)*
G04 Created by KiCad (PCBNEW 4.0.6) date 12/07/17 13:55:46*
%MOMM*%
%LPD*%
G01*
G04 APERTURE LIST*
%ADD10C,0.100000*%
%ADD11R,1.250000X1.000000*%
%ADD12R,1.700000X1.700000*%
%ADD13O,1.700000X1.700000*%
%ADD14R,1.300000X0.700000*%
%ADD15R,0.700000X1.300000*%
%ADD16R,0.650000X1.060000*%
%ADD17R,1.600000X0.550000*%
%ADD18R,0.550000X1.600000*%
%ADD19R,1.300000X0.400000*%
%ADD20R,0.600000X2.200000*%
%ADD21R,1.800000X2.600000*%
%ADD22R,4.400000X3.750000*%
%ADD23C,0.600000*%
%ADD24C,0.250000*%
%ADD25C,0.900000*%
%ADD26C,0.254000*%
G04 APERTURE END LIST*
D10*
D11*
X135500000Y-88300000D03*
X135500000Y-86300000D03*
X159300000Y-81000000D03*
X159300000Y-79000000D03*
X149300000Y-90100000D03*
X149300000Y-92100000D03*
X142600000Y-101500000D03*
X142600000Y-99500000D03*
X156400000Y-75400000D03*
X156400000Y-73400000D03*
X151500000Y-76900000D03*
X151500000Y-74900000D03*
D12*
X159100000Y-102400000D03*
D13*
X156560000Y-102400000D03*
X154020000Y-102400000D03*
X151480000Y-102400000D03*
X148940000Y-102400000D03*
X146400000Y-102400000D03*
D12*
X135300000Y-98560000D03*
D13*
X137840000Y-98560000D03*
X135300000Y-101100000D03*
X137840000Y-101100000D03*
X135300000Y-103640000D03*
X137840000Y-103640000D03*
D14*
X150500000Y-98800000D03*
X150500000Y-96900000D03*
X141500000Y-81300000D03*
X141500000Y-83200000D03*
X136600000Y-83200000D03*
X136600000Y-81300000D03*
D15*
X142400000Y-97100000D03*
X140500000Y-97100000D03*
D14*
X146500000Y-81200000D03*
X146500000Y-83100000D03*
X143900000Y-83100000D03*
X143900000Y-81200000D03*
X139100000Y-83100000D03*
X139100000Y-81200000D03*
D16*
X153350000Y-80800000D03*
X154300000Y-80800000D03*
X155250000Y-80800000D03*
X155250000Y-78600000D03*
X153350000Y-78600000D03*
D17*
X146700000Y-93100000D03*
X146700000Y-92300000D03*
X146700000Y-91500000D03*
X146700000Y-90700000D03*
X146700000Y-89900000D03*
X146700000Y-89100000D03*
X146700000Y-88300000D03*
X146700000Y-87500000D03*
D18*
X145250000Y-86050000D03*
X144450000Y-86050000D03*
X143650000Y-86050000D03*
X142850000Y-86050000D03*
X142050000Y-86050000D03*
X141250000Y-86050000D03*
X140450000Y-86050000D03*
X139650000Y-86050000D03*
D17*
X138200000Y-87500000D03*
X138200000Y-88300000D03*
X138200000Y-89100000D03*
X138200000Y-89900000D03*
X138200000Y-90700000D03*
X138200000Y-91500000D03*
X138200000Y-92300000D03*
X138200000Y-93100000D03*
D18*
X139650000Y-94550000D03*
X140450000Y-94550000D03*
X141250000Y-94550000D03*
X142050000Y-94550000D03*
X142850000Y-94550000D03*
X143650000Y-94550000D03*
X144450000Y-94550000D03*
X145250000Y-94550000D03*
D19*
X149200000Y-88300000D03*
X149200000Y-85900000D03*
X149200000Y-87100000D03*
D20*
X137200000Y-77600000D03*
X138200000Y-77600000D03*
X139200000Y-77600000D03*
X140200000Y-77600000D03*
X141200000Y-77600000D03*
X142200000Y-77600000D03*
X143200000Y-77600000D03*
X144200000Y-77600000D03*
X145200000Y-77600000D03*
X146200000Y-77600000D03*
D21*
X148800000Y-75200000D03*
X134600000Y-75200000D03*
D22*
X154300000Y-88400000D03*
X154300000Y-95950000D03*
D12*
X159700000Y-86540000D03*
D13*
X159700000Y-84000000D03*
D23*
X154300000Y-80800000D03*
X159300000Y-79000000D03*
X146300000Y-77700000D03*
X149200000Y-87100000D03*
X138200000Y-90700000D03*
X135500000Y-86300000D03*
X146700000Y-89900000D03*
X146700000Y-91500000D03*
X149300000Y-92100000D03*
X154300000Y-95950000D03*
X151500000Y-74900000D03*
X156400000Y-73400000D03*
X138200000Y-87500000D03*
X138200000Y-92300000D03*
X145200000Y-77600000D03*
D24*
X146700000Y-89100000D02*
X148400000Y-89100000D01*
X148400000Y-89100000D02*
X149300000Y-90000000D01*
X149300000Y-90000000D02*
X149300000Y-90100000D01*
X143439998Y-88300000D02*
X144900000Y-89760002D01*
X144900000Y-89760002D02*
X145839998Y-90700000D01*
X146700000Y-89100000D02*
X145650000Y-89100000D01*
X145650000Y-89100000D02*
X144989998Y-89760002D01*
X144989998Y-89760002D02*
X144900000Y-89760002D01*
X138200000Y-88300000D02*
X143439998Y-88300000D01*
X145839998Y-90700000D02*
X146700000Y-90700000D01*
X144200000Y-77600000D02*
X144200000Y-76250000D01*
X149300000Y-90100000D02*
X149175000Y-90100000D01*
X146700000Y-90700000D02*
X148700000Y-90700000D01*
X148700000Y-90700000D02*
X149300000Y-90100000D01*
X138200000Y-88300000D02*
X137150000Y-88300000D01*
X137150000Y-88300000D02*
X135500000Y-88300000D01*
D25*
X156600000Y-83500000D02*
X154800000Y-83500000D01*
X154800000Y-83500000D02*
X153350000Y-82050000D01*
X153350000Y-82050000D02*
X153350000Y-80800000D01*
X156600000Y-83500000D02*
X154000000Y-86100000D01*
X159100000Y-81000000D02*
X156600000Y-83500000D01*
X159300000Y-81000000D02*
X155450000Y-81000000D01*
D24*
X155450000Y-81000000D02*
X155250000Y-80800000D01*
D25*
X159175000Y-81000000D02*
X159100000Y-81000000D01*
X154000000Y-86100000D02*
X154000000Y-87200000D01*
D24*
X159300000Y-81000000D02*
X159175000Y-81000000D01*
D25*
X159700000Y-84000000D02*
X159700000Y-81400000D01*
D24*
X159700000Y-81400000D02*
X159300000Y-81000000D01*
X154600000Y-89400000D02*
X153600000Y-88400000D01*
X142600000Y-101500000D02*
X145500000Y-101500000D01*
X145500000Y-101500000D02*
X146400000Y-102400000D01*
X146300000Y-102300000D02*
X146400000Y-102400000D01*
X142400000Y-97100000D02*
X142400000Y-99300000D01*
X142400000Y-99300000D02*
X142600000Y-99500000D01*
X142400000Y-97100000D02*
X142400000Y-96200000D01*
X142400000Y-96200000D02*
X142850000Y-95750000D01*
X142850000Y-95750000D02*
X142850000Y-95600000D01*
X142850000Y-95600000D02*
X142850000Y-94550000D01*
X137840000Y-98560000D02*
X141240000Y-98560000D01*
X141240000Y-98560000D02*
X142400000Y-97400000D01*
X142400000Y-97400000D02*
X142400000Y-97100000D01*
X155250000Y-78600000D02*
X155250000Y-76425000D01*
X155250000Y-76425000D02*
X156275000Y-75400000D01*
X156275000Y-75400000D02*
X156400000Y-75400000D01*
X151500000Y-76900000D02*
X151855000Y-76900000D01*
X151855000Y-76900000D02*
X153350000Y-78395000D01*
X153350000Y-78395000D02*
X153350000Y-78600000D01*
X143200000Y-77600000D02*
X143200000Y-78585002D01*
X143200000Y-78585002D02*
X143639999Y-79025001D01*
X143639999Y-79025001D02*
X148499999Y-79025001D01*
X148499999Y-79025001D02*
X150625000Y-76900000D01*
X150625000Y-76900000D02*
X151500000Y-76900000D01*
X151550000Y-76950000D02*
X151500000Y-76900000D01*
X154020000Y-102400000D02*
X154020000Y-100420000D01*
X154020000Y-100420000D02*
X152400000Y-98800000D01*
X152400000Y-98800000D02*
X150500000Y-98800000D01*
X151480000Y-102400000D02*
X144450000Y-95370000D01*
X144450000Y-95370000D02*
X144450000Y-94550000D01*
X148940000Y-102400000D02*
X143650000Y-97110000D01*
X143650000Y-97110000D02*
X143650000Y-94550000D01*
X135300000Y-101100000D02*
X134099989Y-99899989D01*
X134099989Y-99899989D02*
X134099989Y-83200011D01*
X134099989Y-83200011D02*
X135225011Y-82074989D01*
X135225011Y-82074989D02*
X140074989Y-82074989D01*
X140074989Y-82074989D02*
X141200000Y-83200000D01*
X141200000Y-83200000D02*
X141500000Y-83200000D01*
X141500000Y-83200000D02*
X141500000Y-83800000D01*
X141500000Y-83800000D02*
X140450000Y-84850000D01*
X140450000Y-84850000D02*
X140450000Y-85000000D01*
X140450000Y-85000000D02*
X140450000Y-86050000D01*
X136600000Y-83200000D02*
X136600000Y-86425000D01*
X136600000Y-86425000D02*
X137675000Y-87500000D01*
X137675000Y-87500000D02*
X138200000Y-87500000D01*
X139100000Y-83100000D02*
X138085002Y-83100000D01*
X138085002Y-83100000D02*
X137510001Y-82524999D01*
X137510001Y-82524999D02*
X135689999Y-82524999D01*
X135689999Y-82524999D02*
X134549999Y-83664999D01*
X134549999Y-83664999D02*
X134549999Y-94349999D01*
X134549999Y-94349999D02*
X136664999Y-96464999D01*
X136664999Y-96464999D02*
X136664999Y-102464999D01*
X136664999Y-102464999D02*
X136990001Y-102790001D01*
X136990001Y-102790001D02*
X137840000Y-103640000D01*
X139100000Y-83100000D02*
X139100000Y-84975000D01*
X139100000Y-84975000D02*
X139650000Y-85525000D01*
X139650000Y-85525000D02*
X139650000Y-86050000D01*
X146500000Y-81200000D02*
X145900000Y-81200000D01*
X145900000Y-81200000D02*
X144900000Y-80200000D01*
X143450000Y-80200000D02*
X142200000Y-78950000D01*
X144900000Y-80200000D02*
X143450000Y-80200000D01*
X142200000Y-78950000D02*
X142200000Y-77600000D01*
X143900000Y-81200000D02*
X143000000Y-81200000D01*
X143000000Y-81200000D02*
X141200000Y-79400000D01*
X141200000Y-79400000D02*
X141200000Y-78950000D01*
X141200000Y-78950000D02*
X141200000Y-77600000D01*
X141500000Y-81300000D02*
X141500000Y-80700000D01*
X141500000Y-80700000D02*
X140200000Y-79400000D01*
X140200000Y-79400000D02*
X140200000Y-78950000D01*
X140200000Y-78950000D02*
X140200000Y-77600000D01*
X139100000Y-81200000D02*
X139100000Y-77700000D01*
X139100000Y-77700000D02*
X139200000Y-77600000D01*
X136600000Y-79600000D02*
X137200000Y-79000000D01*
X137200000Y-79000000D02*
X137200000Y-77600000D01*
X136600000Y-81300000D02*
X136600000Y-79600000D01*
X145900000Y-84300000D02*
X143550000Y-84300000D01*
X143550000Y-84300000D02*
X142850000Y-85000000D01*
X142850000Y-85000000D02*
X142850000Y-86050000D01*
X146500000Y-83100000D02*
X146500000Y-83700000D01*
X146500000Y-83700000D02*
X145900000Y-84300000D01*
X143900000Y-83100000D02*
X143185002Y-83100000D01*
X141200000Y-86000000D02*
X141250000Y-86050000D01*
X143185002Y-83100000D02*
X142385002Y-83900000D01*
X142385002Y-83900000D02*
X142036410Y-83900000D01*
X142036410Y-83900000D02*
X141200000Y-84736410D01*
X141200000Y-84736410D02*
X141200000Y-86000000D01*
X149200000Y-88300000D02*
X146700000Y-88300000D01*
X149200000Y-85900000D02*
X148300000Y-85900000D01*
X148300000Y-85900000D02*
X146700000Y-87500000D01*
D26*
G36*
X161290000Y-105290000D02*
X133710000Y-105290000D01*
X133710000Y-103996890D01*
X133858524Y-103996890D01*
X134028355Y-104406924D01*
X134418642Y-104835183D01*
X134943108Y-105081486D01*
X135173000Y-104960819D01*
X135173000Y-103767000D01*
X133979845Y-103767000D01*
X133858524Y-103996890D01*
X133710000Y-103996890D01*
X133710000Y-100584802D01*
X133858790Y-100733592D01*
X133785907Y-101100000D01*
X133898946Y-101668285D01*
X134220853Y-102150054D01*
X134561553Y-102377702D01*
X134418642Y-102444817D01*
X134028355Y-102873076D01*
X133858524Y-103283110D01*
X133979845Y-103513000D01*
X135173000Y-103513000D01*
X135173000Y-103493000D01*
X135427000Y-103493000D01*
X135427000Y-103513000D01*
X135447000Y-103513000D01*
X135447000Y-103767000D01*
X135427000Y-103767000D01*
X135427000Y-104960819D01*
X135656892Y-105081486D01*
X136181358Y-104835183D01*
X136571645Y-104406924D01*
X136571655Y-104406899D01*
X136760853Y-104690054D01*
X137242622Y-105011961D01*
X137810907Y-105125000D01*
X137869093Y-105125000D01*
X138437378Y-105011961D01*
X138919147Y-104690054D01*
X139241054Y-104208285D01*
X139354093Y-103640000D01*
X139241054Y-103071715D01*
X138919147Y-102589946D01*
X138589974Y-102370000D01*
X138919147Y-102150054D01*
X139241054Y-101668285D01*
X139354093Y-101100000D01*
X139241054Y-100531715D01*
X138919147Y-100049946D01*
X138589974Y-99830000D01*
X138919147Y-99610054D01*
X139112954Y-99320000D01*
X141240000Y-99320000D01*
X141327560Y-99302583D01*
X141327560Y-100000000D01*
X141371838Y-100235317D01*
X141510910Y-100451441D01*
X141580711Y-100499134D01*
X141523559Y-100535910D01*
X141378569Y-100748110D01*
X141327560Y-101000000D01*
X141327560Y-102000000D01*
X141371838Y-102235317D01*
X141510910Y-102451441D01*
X141723110Y-102596431D01*
X141975000Y-102647440D01*
X143225000Y-102647440D01*
X143460317Y-102603162D01*
X143676441Y-102464090D01*
X143815890Y-102260000D01*
X144937061Y-102260000D01*
X144915000Y-102370907D01*
X144915000Y-102429093D01*
X145028039Y-102997378D01*
X145349946Y-103479147D01*
X145831715Y-103801054D01*
X146400000Y-103914093D01*
X146968285Y-103801054D01*
X147450054Y-103479147D01*
X147670000Y-103149974D01*
X147889946Y-103479147D01*
X148371715Y-103801054D01*
X148940000Y-103914093D01*
X149508285Y-103801054D01*
X149990054Y-103479147D01*
X150210000Y-103149974D01*
X150429946Y-103479147D01*
X150911715Y-103801054D01*
X151480000Y-103914093D01*
X152048285Y-103801054D01*
X152530054Y-103479147D01*
X152750000Y-103149974D01*
X152969946Y-103479147D01*
X153451715Y-103801054D01*
X154020000Y-103914093D01*
X154588285Y-103801054D01*
X155070054Y-103479147D01*
X155290000Y-103149974D01*
X155509946Y-103479147D01*
X155991715Y-103801054D01*
X156560000Y-103914093D01*
X157128285Y-103801054D01*
X157610054Y-103479147D01*
X157637850Y-103437548D01*
X157646838Y-103485317D01*
X157785910Y-103701441D01*
X157998110Y-103846431D01*
X158250000Y-103897440D01*
X159950000Y-103897440D01*
X160185317Y-103853162D01*
X160401441Y-103714090D01*
X160546431Y-103501890D01*
X160597440Y-103250000D01*
X160597440Y-101550000D01*
X160553162Y-101314683D01*
X160414090Y-101098559D01*
X160201890Y-100953569D01*
X159950000Y-100902560D01*
X158250000Y-100902560D01*
X158014683Y-100946838D01*
X157798559Y-101085910D01*
X157653569Y-101298110D01*
X157639914Y-101365541D01*
X157610054Y-101320853D01*
X157128285Y-100998946D01*
X156560000Y-100885907D01*
X155991715Y-100998946D01*
X155509946Y-101320853D01*
X155290000Y-101650026D01*
X155070054Y-101320853D01*
X154780000Y-101127046D01*
X154780000Y-100420000D01*
X154722148Y-100129161D01*
X154557401Y-99882599D01*
X153147242Y-98472440D01*
X156500000Y-98472440D01*
X156735317Y-98428162D01*
X156951441Y-98289090D01*
X157096431Y-98076890D01*
X157147440Y-97825000D01*
X157147440Y-94075000D01*
X157103162Y-93839683D01*
X156964090Y-93623559D01*
X156751890Y-93478569D01*
X156500000Y-93427560D01*
X152100000Y-93427560D01*
X151864683Y-93471838D01*
X151648559Y-93610910D01*
X151503569Y-93823110D01*
X151452560Y-94075000D01*
X151452560Y-95988005D01*
X151276310Y-95915000D01*
X150785750Y-95915000D01*
X150627000Y-96073750D01*
X150627000Y-96773000D01*
X150647000Y-96773000D01*
X150647000Y-97027000D01*
X150627000Y-97027000D01*
X150627000Y-97047000D01*
X150373000Y-97047000D01*
X150373000Y-97027000D01*
X149373750Y-97027000D01*
X149215000Y-97185750D01*
X149215000Y-97376309D01*
X149311673Y-97609698D01*
X149490301Y-97788327D01*
X149626287Y-97844654D01*
X149614683Y-97846838D01*
X149398559Y-97985910D01*
X149253569Y-98198110D01*
X149202560Y-98450000D01*
X149202560Y-99047758D01*
X146578493Y-96423691D01*
X149215000Y-96423691D01*
X149215000Y-96614250D01*
X149373750Y-96773000D01*
X150373000Y-96773000D01*
X150373000Y-96073750D01*
X150214250Y-95915000D01*
X149723690Y-95915000D01*
X149490301Y-96011673D01*
X149311673Y-96190302D01*
X149215000Y-96423691D01*
X146578493Y-96423691D01*
X145971848Y-95817046D01*
X145976441Y-95814090D01*
X146121431Y-95601890D01*
X146172440Y-95350000D01*
X146172440Y-94022440D01*
X147500000Y-94022440D01*
X147735317Y-93978162D01*
X147951441Y-93839090D01*
X148096431Y-93626890D01*
X148147440Y-93375000D01*
X148147440Y-92952806D01*
X148210910Y-93051441D01*
X148423110Y-93196431D01*
X148675000Y-93247440D01*
X149925000Y-93247440D01*
X150160317Y-93203162D01*
X150376441Y-93064090D01*
X150521431Y-92851890D01*
X150572440Y-92600000D01*
X150572440Y-91600000D01*
X150528162Y-91364683D01*
X150389090Y-91148559D01*
X150320994Y-91102031D01*
X150463327Y-90959698D01*
X150560000Y-90726309D01*
X150560000Y-90385750D01*
X150401250Y-90227000D01*
X149427000Y-90227000D01*
X149427000Y-90247000D01*
X149173000Y-90247000D01*
X149173000Y-90227000D01*
X149153000Y-90227000D01*
X149153000Y-89973000D01*
X149173000Y-89973000D01*
X149173000Y-89953000D01*
X149427000Y-89953000D01*
X149427000Y-89973000D01*
X150401250Y-89973000D01*
X150560000Y-89814250D01*
X150560000Y-89473691D01*
X150463327Y-89240302D01*
X150284699Y-89061673D01*
X150202625Y-89027677D01*
X150301441Y-88964090D01*
X150446431Y-88751890D01*
X150497440Y-88500000D01*
X150497440Y-88100000D01*
X150453162Y-87864683D01*
X150346241Y-87698523D01*
X150446431Y-87551890D01*
X150497440Y-87300000D01*
X150497440Y-86900000D01*
X150453162Y-86664683D01*
X150346241Y-86498523D01*
X150446431Y-86351890D01*
X150497440Y-86100000D01*
X150497440Y-85700000D01*
X150453162Y-85464683D01*
X150314090Y-85248559D01*
X150101890Y-85103569D01*
X149850000Y-85052560D01*
X148550000Y-85052560D01*
X148314683Y-85096838D01*
X148224165Y-85155085D01*
X148009161Y-85197852D01*
X147762599Y-85362599D01*
X146547638Y-86577560D01*
X146172440Y-86577560D01*
X146172440Y-85250000D01*
X146128162Y-85014683D01*
X146128123Y-85014623D01*
X146190839Y-85002148D01*
X146437401Y-84837401D01*
X147037401Y-84237401D01*
X147130920Y-84097440D01*
X147150000Y-84097440D01*
X147385317Y-84053162D01*
X147601441Y-83914090D01*
X147746431Y-83701890D01*
X147797440Y-83450000D01*
X147797440Y-82750000D01*
X147753162Y-82514683D01*
X147614090Y-82298559D01*
X147401890Y-82153569D01*
X147388803Y-82150919D01*
X147601441Y-82014090D01*
X147746431Y-81801890D01*
X147797440Y-81550000D01*
X147797440Y-80850000D01*
X147753162Y-80614683D01*
X147614090Y-80398559D01*
X147401890Y-80253569D01*
X147150000Y-80202560D01*
X145977362Y-80202560D01*
X145559803Y-79785001D01*
X148499999Y-79785001D01*
X148790838Y-79727149D01*
X149037400Y-79562402D01*
X150611383Y-77988419D01*
X150623110Y-77996431D01*
X150875000Y-78047440D01*
X151927638Y-78047440D01*
X152377560Y-78497362D01*
X152377560Y-79130000D01*
X152421838Y-79365317D01*
X152560910Y-79581441D01*
X152736232Y-79701233D01*
X152573559Y-79805910D01*
X152428569Y-80018110D01*
X152377560Y-80270000D01*
X152377560Y-80339936D01*
X152347591Y-80384788D01*
X152265000Y-80800000D01*
X152265000Y-82050000D01*
X152347591Y-82465212D01*
X152577410Y-82809161D01*
X152582789Y-82817211D01*
X154032789Y-84267211D01*
X154191991Y-84373587D01*
X153232789Y-85332789D01*
X152997591Y-85684788D01*
X152959246Y-85877560D01*
X152100000Y-85877560D01*
X151864683Y-85921838D01*
X151648559Y-86060910D01*
X151503569Y-86273110D01*
X151452560Y-86525000D01*
X151452560Y-90275000D01*
X151496838Y-90510317D01*
X151635910Y-90726441D01*
X151848110Y-90871431D01*
X152100000Y-90922440D01*
X156500000Y-90922440D01*
X156735317Y-90878162D01*
X156951441Y-90739090D01*
X157096431Y-90526890D01*
X157147440Y-90275000D01*
X157147440Y-86525000D01*
X157103162Y-86289683D01*
X156964090Y-86073559D01*
X156751890Y-85928569D01*
X156500000Y-85877560D01*
X155756862Y-85877560D01*
X158492738Y-83141684D01*
X158298946Y-83431715D01*
X158185907Y-84000000D01*
X158298946Y-84568285D01*
X158620853Y-85050054D01*
X158662452Y-85077850D01*
X158614683Y-85086838D01*
X158398559Y-85225910D01*
X158253569Y-85438110D01*
X158202560Y-85690000D01*
X158202560Y-87390000D01*
X158246838Y-87625317D01*
X158385910Y-87841441D01*
X158598110Y-87986431D01*
X158850000Y-88037440D01*
X160550000Y-88037440D01*
X160785317Y-87993162D01*
X161001441Y-87854090D01*
X161146431Y-87641890D01*
X161197440Y-87390000D01*
X161197440Y-85690000D01*
X161153162Y-85454683D01*
X161014090Y-85238559D01*
X160801890Y-85093569D01*
X160734459Y-85079914D01*
X160779147Y-85050054D01*
X161101054Y-84568285D01*
X161214093Y-84000000D01*
X161101054Y-83431715D01*
X160785000Y-82958706D01*
X160785000Y-81400000D01*
X160702409Y-80984788D01*
X160572440Y-80790275D01*
X160572440Y-80500000D01*
X160528162Y-80264683D01*
X160389090Y-80048559D01*
X160319289Y-80000866D01*
X160376441Y-79964090D01*
X160521431Y-79751890D01*
X160572440Y-79500000D01*
X160572440Y-78500000D01*
X160528162Y-78264683D01*
X160389090Y-78048559D01*
X160176890Y-77903569D01*
X159925000Y-77852560D01*
X158675000Y-77852560D01*
X158439683Y-77896838D01*
X158223559Y-78035910D01*
X158078569Y-78248110D01*
X158027560Y-78500000D01*
X158027560Y-79500000D01*
X158071838Y-79735317D01*
X158187461Y-79915000D01*
X156101148Y-79915000D01*
X156039090Y-79818559D01*
X155863768Y-79698767D01*
X156026441Y-79594090D01*
X156171431Y-79381890D01*
X156222440Y-79130000D01*
X156222440Y-78070000D01*
X156178162Y-77834683D01*
X156039090Y-77618559D01*
X156010000Y-77598683D01*
X156010000Y-76739802D01*
X156202362Y-76547440D01*
X157025000Y-76547440D01*
X157260317Y-76503162D01*
X157476441Y-76364090D01*
X157621431Y-76151890D01*
X157672440Y-75900000D01*
X157672440Y-74900000D01*
X157628162Y-74664683D01*
X157489090Y-74448559D01*
X157419289Y-74400866D01*
X157476441Y-74364090D01*
X157621431Y-74151890D01*
X157672440Y-73900000D01*
X157672440Y-72900000D01*
X157628162Y-72664683D01*
X157489090Y-72448559D01*
X157276890Y-72303569D01*
X157025000Y-72252560D01*
X155775000Y-72252560D01*
X155539683Y-72296838D01*
X155323559Y-72435910D01*
X155178569Y-72648110D01*
X155127560Y-72900000D01*
X155127560Y-73900000D01*
X155171838Y-74135317D01*
X155310910Y-74351441D01*
X155380711Y-74399134D01*
X155323559Y-74435910D01*
X155178569Y-74648110D01*
X155127560Y-74900000D01*
X155127560Y-75472638D01*
X154712599Y-75887599D01*
X154547852Y-76134161D01*
X154490000Y-76425000D01*
X154490000Y-77595331D01*
X154473559Y-77605910D01*
X154328569Y-77818110D01*
X154300824Y-77955120D01*
X154278162Y-77834683D01*
X154139090Y-77618559D01*
X153926890Y-77473569D01*
X153675000Y-77422560D01*
X153452362Y-77422560D01*
X152772440Y-76742638D01*
X152772440Y-76400000D01*
X152728162Y-76164683D01*
X152589090Y-75948559D01*
X152519289Y-75900866D01*
X152576441Y-75864090D01*
X152721431Y-75651890D01*
X152772440Y-75400000D01*
X152772440Y-74400000D01*
X152728162Y-74164683D01*
X152589090Y-73948559D01*
X152376890Y-73803569D01*
X152125000Y-73752560D01*
X150875000Y-73752560D01*
X150639683Y-73796838D01*
X150423559Y-73935910D01*
X150347440Y-74047314D01*
X150347440Y-73900000D01*
X150303162Y-73664683D01*
X150164090Y-73448559D01*
X149951890Y-73303569D01*
X149700000Y-73252560D01*
X147900000Y-73252560D01*
X147664683Y-73296838D01*
X147448559Y-73435910D01*
X147303569Y-73648110D01*
X147252560Y-73900000D01*
X147252560Y-76500000D01*
X147296838Y-76735317D01*
X147435910Y-76951441D01*
X147648110Y-77096431D01*
X147900000Y-77147440D01*
X149302758Y-77147440D01*
X148185197Y-78265001D01*
X147147440Y-78265001D01*
X147147440Y-78097276D01*
X147234838Y-77886799D01*
X147235162Y-77514833D01*
X147147440Y-77302529D01*
X147147440Y-76500000D01*
X147103162Y-76264683D01*
X146964090Y-76048559D01*
X146751890Y-75903569D01*
X146500000Y-75852560D01*
X145900000Y-75852560D01*
X145692658Y-75891574D01*
X145500000Y-75852560D01*
X144900000Y-75852560D01*
X144691150Y-75891858D01*
X144626309Y-75865000D01*
X144485750Y-75865000D01*
X144327000Y-76023750D01*
X144327000Y-76213818D01*
X144303569Y-76248110D01*
X144252560Y-76500000D01*
X144252560Y-77747000D01*
X144147440Y-77747000D01*
X144147440Y-76500000D01*
X144103162Y-76264683D01*
X144073000Y-76217810D01*
X144073000Y-76023750D01*
X143914250Y-75865000D01*
X143773691Y-75865000D01*
X143703993Y-75893870D01*
X143500000Y-75852560D01*
X142900000Y-75852560D01*
X142692658Y-75891574D01*
X142500000Y-75852560D01*
X141900000Y-75852560D01*
X141692658Y-75891574D01*
X141500000Y-75852560D01*
X140900000Y-75852560D01*
X140692658Y-75891574D01*
X140500000Y-75852560D01*
X139900000Y-75852560D01*
X139692658Y-75891574D01*
X139500000Y-75852560D01*
X138900000Y-75852560D01*
X138692658Y-75891574D01*
X138500000Y-75852560D01*
X137900000Y-75852560D01*
X137692658Y-75891574D01*
X137500000Y-75852560D01*
X136900000Y-75852560D01*
X136664683Y-75896838D01*
X136448559Y-76035910D01*
X136303569Y-76248110D01*
X136252560Y-76500000D01*
X136252560Y-78700000D01*
X136279900Y-78845298D01*
X136062599Y-79062599D01*
X135897852Y-79309161D01*
X135840000Y-79600000D01*
X135840000Y-80323258D01*
X135714683Y-80346838D01*
X135498559Y-80485910D01*
X135353569Y-80698110D01*
X135302560Y-80950000D01*
X135302560Y-81314989D01*
X135225011Y-81314989D01*
X134934171Y-81372841D01*
X134687610Y-81537588D01*
X133710000Y-82515198D01*
X133710000Y-77147440D01*
X135500000Y-77147440D01*
X135735317Y-77103162D01*
X135951441Y-76964090D01*
X136096431Y-76751890D01*
X136147440Y-76500000D01*
X136147440Y-73900000D01*
X136103162Y-73664683D01*
X135964090Y-73448559D01*
X135751890Y-73303569D01*
X135500000Y-73252560D01*
X133710000Y-73252560D01*
X133710000Y-71710000D01*
X161290000Y-71710000D01*
X161290000Y-105290000D01*
X161290000Y-105290000D01*
G37*
X161290000Y-105290000D02*
X133710000Y-105290000D01*
X133710000Y-103996890D01*
X133858524Y-103996890D01*
X134028355Y-104406924D01*
X134418642Y-104835183D01*
X134943108Y-105081486D01*
X135173000Y-104960819D01*
X135173000Y-103767000D01*
X133979845Y-103767000D01*
X133858524Y-103996890D01*
X133710000Y-103996890D01*
X133710000Y-100584802D01*
X133858790Y-100733592D01*
X133785907Y-101100000D01*
X133898946Y-101668285D01*
X134220853Y-102150054D01*
X134561553Y-102377702D01*
X134418642Y-102444817D01*
X134028355Y-102873076D01*
X133858524Y-103283110D01*
X133979845Y-103513000D01*
X135173000Y-103513000D01*
X135173000Y-103493000D01*
X135427000Y-103493000D01*
X135427000Y-103513000D01*
X135447000Y-103513000D01*
X135447000Y-103767000D01*
X135427000Y-103767000D01*
X135427000Y-104960819D01*
X135656892Y-105081486D01*
X136181358Y-104835183D01*
X136571645Y-104406924D01*
X136571655Y-104406899D01*
X136760853Y-104690054D01*
X137242622Y-105011961D01*
X137810907Y-105125000D01*
X137869093Y-105125000D01*
X138437378Y-105011961D01*
X138919147Y-104690054D01*
X139241054Y-104208285D01*
X139354093Y-103640000D01*
X139241054Y-103071715D01*
X138919147Y-102589946D01*
X138589974Y-102370000D01*
X138919147Y-102150054D01*
X139241054Y-101668285D01*
X139354093Y-101100000D01*
X139241054Y-100531715D01*
X138919147Y-100049946D01*
X138589974Y-99830000D01*
X138919147Y-99610054D01*
X139112954Y-99320000D01*
X141240000Y-99320000D01*
X141327560Y-99302583D01*
X141327560Y-100000000D01*
X141371838Y-100235317D01*
X141510910Y-100451441D01*
X141580711Y-100499134D01*
X141523559Y-100535910D01*
X141378569Y-100748110D01*
X141327560Y-101000000D01*
X141327560Y-102000000D01*
X141371838Y-102235317D01*
X141510910Y-102451441D01*
X141723110Y-102596431D01*
X141975000Y-102647440D01*
X143225000Y-102647440D01*
X143460317Y-102603162D01*
X143676441Y-102464090D01*
X143815890Y-102260000D01*
X144937061Y-102260000D01*
X144915000Y-102370907D01*
X144915000Y-102429093D01*
X145028039Y-102997378D01*
X145349946Y-103479147D01*
X145831715Y-103801054D01*
X146400000Y-103914093D01*
X146968285Y-103801054D01*
X147450054Y-103479147D01*
X147670000Y-103149974D01*
X147889946Y-103479147D01*
X148371715Y-103801054D01*
X148940000Y-103914093D01*
X149508285Y-103801054D01*
X149990054Y-103479147D01*
X150210000Y-103149974D01*
X150429946Y-103479147D01*
X150911715Y-103801054D01*
X151480000Y-103914093D01*
X152048285Y-103801054D01*
X152530054Y-103479147D01*
X152750000Y-103149974D01*
X152969946Y-103479147D01*
X153451715Y-103801054D01*
X154020000Y-103914093D01*
X154588285Y-103801054D01*
X155070054Y-103479147D01*
X155290000Y-103149974D01*
X155509946Y-103479147D01*
X155991715Y-103801054D01*
X156560000Y-103914093D01*
X157128285Y-103801054D01*
X157610054Y-103479147D01*
X157637850Y-103437548D01*
X157646838Y-103485317D01*
X157785910Y-103701441D01*
X157998110Y-103846431D01*
X158250000Y-103897440D01*
X159950000Y-103897440D01*
X160185317Y-103853162D01*
X160401441Y-103714090D01*
X160546431Y-103501890D01*
X160597440Y-103250000D01*
X160597440Y-101550000D01*
X160553162Y-101314683D01*
X160414090Y-101098559D01*
X160201890Y-100953569D01*
X159950000Y-100902560D01*
X158250000Y-100902560D01*
X158014683Y-100946838D01*
X157798559Y-101085910D01*
X157653569Y-101298110D01*
X157639914Y-101365541D01*
X157610054Y-101320853D01*
X157128285Y-100998946D01*
X156560000Y-100885907D01*
X155991715Y-100998946D01*
X155509946Y-101320853D01*
X155290000Y-101650026D01*
X155070054Y-101320853D01*
X154780000Y-101127046D01*
X154780000Y-100420000D01*
X154722148Y-100129161D01*
X154557401Y-99882599D01*
X153147242Y-98472440D01*
X156500000Y-98472440D01*
X156735317Y-98428162D01*
X156951441Y-98289090D01*
X157096431Y-98076890D01*
X157147440Y-97825000D01*
X157147440Y-94075000D01*
X157103162Y-93839683D01*
X156964090Y-93623559D01*
X156751890Y-93478569D01*
X156500000Y-93427560D01*
X152100000Y-93427560D01*
X151864683Y-93471838D01*
X151648559Y-93610910D01*
X151503569Y-93823110D01*
X151452560Y-94075000D01*
X151452560Y-95988005D01*
X151276310Y-95915000D01*
X150785750Y-95915000D01*
X150627000Y-96073750D01*
X150627000Y-96773000D01*
X150647000Y-96773000D01*
X150647000Y-97027000D01*
X150627000Y-97027000D01*
X150627000Y-97047000D01*
X150373000Y-97047000D01*
X150373000Y-97027000D01*
X149373750Y-97027000D01*
X149215000Y-97185750D01*
X149215000Y-97376309D01*
X149311673Y-97609698D01*
X149490301Y-97788327D01*
X149626287Y-97844654D01*
X149614683Y-97846838D01*
X149398559Y-97985910D01*
X149253569Y-98198110D01*
X149202560Y-98450000D01*
X149202560Y-99047758D01*
X146578493Y-96423691D01*
X149215000Y-96423691D01*
X149215000Y-96614250D01*
X149373750Y-96773000D01*
X150373000Y-96773000D01*
X150373000Y-96073750D01*
X150214250Y-95915000D01*
X149723690Y-95915000D01*
X149490301Y-96011673D01*
X149311673Y-96190302D01*
X149215000Y-96423691D01*
X146578493Y-96423691D01*
X145971848Y-95817046D01*
X145976441Y-95814090D01*
X146121431Y-95601890D01*
X146172440Y-95350000D01*
X146172440Y-94022440D01*
X147500000Y-94022440D01*
X147735317Y-93978162D01*
X147951441Y-93839090D01*
X148096431Y-93626890D01*
X148147440Y-93375000D01*
X148147440Y-92952806D01*
X148210910Y-93051441D01*
X148423110Y-93196431D01*
X148675000Y-93247440D01*
X149925000Y-93247440D01*
X150160317Y-93203162D01*
X150376441Y-93064090D01*
X150521431Y-92851890D01*
X150572440Y-92600000D01*
X150572440Y-91600000D01*
X150528162Y-91364683D01*
X150389090Y-91148559D01*
X150320994Y-91102031D01*
X150463327Y-90959698D01*
X150560000Y-90726309D01*
X150560000Y-90385750D01*
X150401250Y-90227000D01*
X149427000Y-90227000D01*
X149427000Y-90247000D01*
X149173000Y-90247000D01*
X149173000Y-90227000D01*
X149153000Y-90227000D01*
X149153000Y-89973000D01*
X149173000Y-89973000D01*
X149173000Y-89953000D01*
X149427000Y-89953000D01*
X149427000Y-89973000D01*
X150401250Y-89973000D01*
X150560000Y-89814250D01*
X150560000Y-89473691D01*
X150463327Y-89240302D01*
X150284699Y-89061673D01*
X150202625Y-89027677D01*
X150301441Y-88964090D01*
X150446431Y-88751890D01*
X150497440Y-88500000D01*
X150497440Y-88100000D01*
X150453162Y-87864683D01*
X150346241Y-87698523D01*
X150446431Y-87551890D01*
X150497440Y-87300000D01*
X150497440Y-86900000D01*
X150453162Y-86664683D01*
X150346241Y-86498523D01*
X150446431Y-86351890D01*
X150497440Y-86100000D01*
X150497440Y-85700000D01*
X150453162Y-85464683D01*
X150314090Y-85248559D01*
X150101890Y-85103569D01*
X149850000Y-85052560D01*
X148550000Y-85052560D01*
X148314683Y-85096838D01*
X148224165Y-85155085D01*
X148009161Y-85197852D01*
X147762599Y-85362599D01*
X146547638Y-86577560D01*
X146172440Y-86577560D01*
X146172440Y-85250000D01*
X146128162Y-85014683D01*
X146128123Y-85014623D01*
X146190839Y-85002148D01*
X146437401Y-84837401D01*
X147037401Y-84237401D01*
X147130920Y-84097440D01*
X147150000Y-84097440D01*
X147385317Y-84053162D01*
X147601441Y-83914090D01*
X147746431Y-83701890D01*
X147797440Y-83450000D01*
X147797440Y-82750000D01*
X147753162Y-82514683D01*
X147614090Y-82298559D01*
X147401890Y-82153569D01*
X147388803Y-82150919D01*
X147601441Y-82014090D01*
X147746431Y-81801890D01*
X147797440Y-81550000D01*
X147797440Y-80850000D01*
X147753162Y-80614683D01*
X147614090Y-80398559D01*
X147401890Y-80253569D01*
X147150000Y-80202560D01*
X145977362Y-80202560D01*
X145559803Y-79785001D01*
X148499999Y-79785001D01*
X148790838Y-79727149D01*
X149037400Y-79562402D01*
X150611383Y-77988419D01*
X150623110Y-77996431D01*
X150875000Y-78047440D01*
X151927638Y-78047440D01*
X152377560Y-78497362D01*
X152377560Y-79130000D01*
X152421838Y-79365317D01*
X152560910Y-79581441D01*
X152736232Y-79701233D01*
X152573559Y-79805910D01*
X152428569Y-80018110D01*
X152377560Y-80270000D01*
X152377560Y-80339936D01*
X152347591Y-80384788D01*
X152265000Y-80800000D01*
X152265000Y-82050000D01*
X152347591Y-82465212D01*
X152577410Y-82809161D01*
X152582789Y-82817211D01*
X154032789Y-84267211D01*
X154191991Y-84373587D01*
X153232789Y-85332789D01*
X152997591Y-85684788D01*
X152959246Y-85877560D01*
X152100000Y-85877560D01*
X151864683Y-85921838D01*
X151648559Y-86060910D01*
X151503569Y-86273110D01*
X151452560Y-86525000D01*
X151452560Y-90275000D01*
X151496838Y-90510317D01*
X151635910Y-90726441D01*
X151848110Y-90871431D01*
X152100000Y-90922440D01*
X156500000Y-90922440D01*
X156735317Y-90878162D01*
X156951441Y-90739090D01*
X157096431Y-90526890D01*
X157147440Y-90275000D01*
X157147440Y-86525000D01*
X157103162Y-86289683D01*
X156964090Y-86073559D01*
X156751890Y-85928569D01*
X156500000Y-85877560D01*
X155756862Y-85877560D01*
X158492738Y-83141684D01*
X158298946Y-83431715D01*
X158185907Y-84000000D01*
X158298946Y-84568285D01*
X158620853Y-85050054D01*
X158662452Y-85077850D01*
X158614683Y-85086838D01*
X158398559Y-85225910D01*
X158253569Y-85438110D01*
X158202560Y-85690000D01*
X158202560Y-87390000D01*
X158246838Y-87625317D01*
X158385910Y-87841441D01*
X158598110Y-87986431D01*
X158850000Y-88037440D01*
X160550000Y-88037440D01*
X160785317Y-87993162D01*
X161001441Y-87854090D01*
X161146431Y-87641890D01*
X161197440Y-87390000D01*
X161197440Y-85690000D01*
X161153162Y-85454683D01*
X161014090Y-85238559D01*
X160801890Y-85093569D01*
X160734459Y-85079914D01*
X160779147Y-85050054D01*
X161101054Y-84568285D01*
X161214093Y-84000000D01*
X161101054Y-83431715D01*
X160785000Y-82958706D01*
X160785000Y-81400000D01*
X160702409Y-80984788D01*
X160572440Y-80790275D01*
X160572440Y-80500000D01*
X160528162Y-80264683D01*
X160389090Y-80048559D01*
X160319289Y-80000866D01*
X160376441Y-79964090D01*
X160521431Y-79751890D01*
X160572440Y-79500000D01*
X160572440Y-78500000D01*
X160528162Y-78264683D01*
X160389090Y-78048559D01*
X160176890Y-77903569D01*
X159925000Y-77852560D01*
X158675000Y-77852560D01*
X158439683Y-77896838D01*
X158223559Y-78035910D01*
X158078569Y-78248110D01*
X158027560Y-78500000D01*
X158027560Y-79500000D01*
X158071838Y-79735317D01*
X158187461Y-79915000D01*
X156101148Y-79915000D01*
X156039090Y-79818559D01*
X155863768Y-79698767D01*
X156026441Y-79594090D01*
X156171431Y-79381890D01*
X156222440Y-79130000D01*
X156222440Y-78070000D01*
X156178162Y-77834683D01*
X156039090Y-77618559D01*
X156010000Y-77598683D01*
X156010000Y-76739802D01*
X156202362Y-76547440D01*
X157025000Y-76547440D01*
X157260317Y-76503162D01*
X157476441Y-76364090D01*
X157621431Y-76151890D01*
X157672440Y-75900000D01*
X157672440Y-74900000D01*
X157628162Y-74664683D01*
X157489090Y-74448559D01*
X157419289Y-74400866D01*
X157476441Y-74364090D01*
X157621431Y-74151890D01*
X157672440Y-73900000D01*
X157672440Y-72900000D01*
X157628162Y-72664683D01*
X157489090Y-72448559D01*
X157276890Y-72303569D01*
X157025000Y-72252560D01*
X155775000Y-72252560D01*
X155539683Y-72296838D01*
X155323559Y-72435910D01*
X155178569Y-72648110D01*
X155127560Y-72900000D01*
X155127560Y-73900000D01*
X155171838Y-74135317D01*
X155310910Y-74351441D01*
X155380711Y-74399134D01*
X155323559Y-74435910D01*
X155178569Y-74648110D01*
X155127560Y-74900000D01*
X155127560Y-75472638D01*
X154712599Y-75887599D01*
X154547852Y-76134161D01*
X154490000Y-76425000D01*
X154490000Y-77595331D01*
X154473559Y-77605910D01*
X154328569Y-77818110D01*
X154300824Y-77955120D01*
X154278162Y-77834683D01*
X154139090Y-77618559D01*
X153926890Y-77473569D01*
X153675000Y-77422560D01*
X153452362Y-77422560D01*
X152772440Y-76742638D01*
X152772440Y-76400000D01*
X152728162Y-76164683D01*
X152589090Y-75948559D01*
X152519289Y-75900866D01*
X152576441Y-75864090D01*
X152721431Y-75651890D01*
X152772440Y-75400000D01*
X152772440Y-74400000D01*
X152728162Y-74164683D01*
X152589090Y-73948559D01*
X152376890Y-73803569D01*
X152125000Y-73752560D01*
X150875000Y-73752560D01*
X150639683Y-73796838D01*
X150423559Y-73935910D01*
X150347440Y-74047314D01*
X150347440Y-73900000D01*
X150303162Y-73664683D01*
X150164090Y-73448559D01*
X149951890Y-73303569D01*
X149700000Y-73252560D01*
X147900000Y-73252560D01*
X147664683Y-73296838D01*
X147448559Y-73435910D01*
X147303569Y-73648110D01*
X147252560Y-73900000D01*
X147252560Y-76500000D01*
X147296838Y-76735317D01*
X147435910Y-76951441D01*
X147648110Y-77096431D01*
X147900000Y-77147440D01*
X149302758Y-77147440D01*
X148185197Y-78265001D01*
X147147440Y-78265001D01*
X147147440Y-78097276D01*
X147234838Y-77886799D01*
X147235162Y-77514833D01*
X147147440Y-77302529D01*
X147147440Y-76500000D01*
X147103162Y-76264683D01*
X146964090Y-76048559D01*
X146751890Y-75903569D01*
X146500000Y-75852560D01*
X145900000Y-75852560D01*
X145692658Y-75891574D01*
X145500000Y-75852560D01*
X144900000Y-75852560D01*
X144691150Y-75891858D01*
X144626309Y-75865000D01*
X144485750Y-75865000D01*
X144327000Y-76023750D01*
X144327000Y-76213818D01*
X144303569Y-76248110D01*
X144252560Y-76500000D01*
X144252560Y-77747000D01*
X144147440Y-77747000D01*
X144147440Y-76500000D01*
X144103162Y-76264683D01*
X144073000Y-76217810D01*
X144073000Y-76023750D01*
X143914250Y-75865000D01*
X143773691Y-75865000D01*
X143703993Y-75893870D01*
X143500000Y-75852560D01*
X142900000Y-75852560D01*
X142692658Y-75891574D01*
X142500000Y-75852560D01*
X141900000Y-75852560D01*
X141692658Y-75891574D01*
X141500000Y-75852560D01*
X140900000Y-75852560D01*
X140692658Y-75891574D01*
X140500000Y-75852560D01*
X139900000Y-75852560D01*
X139692658Y-75891574D01*
X139500000Y-75852560D01*
X138900000Y-75852560D01*
X138692658Y-75891574D01*
X138500000Y-75852560D01*
X137900000Y-75852560D01*
X137692658Y-75891574D01*
X137500000Y-75852560D01*
X136900000Y-75852560D01*
X136664683Y-75896838D01*
X136448559Y-76035910D01*
X136303569Y-76248110D01*
X136252560Y-76500000D01*
X136252560Y-78700000D01*
X136279900Y-78845298D01*
X136062599Y-79062599D01*
X135897852Y-79309161D01*
X135840000Y-79600000D01*
X135840000Y-80323258D01*
X135714683Y-80346838D01*
X135498559Y-80485910D01*
X135353569Y-80698110D01*
X135302560Y-80950000D01*
X135302560Y-81314989D01*
X135225011Y-81314989D01*
X134934171Y-81372841D01*
X134687610Y-81537588D01*
X133710000Y-82515198D01*
X133710000Y-77147440D01*
X135500000Y-77147440D01*
X135735317Y-77103162D01*
X135951441Y-76964090D01*
X136096431Y-76751890D01*
X136147440Y-76500000D01*
X136147440Y-73900000D01*
X136103162Y-73664683D01*
X135964090Y-73448559D01*
X135751890Y-73303569D01*
X135500000Y-73252560D01*
X133710000Y-73252560D01*
X133710000Y-71710000D01*
X161290000Y-71710000D01*
X161290000Y-105290000D01*
G36*
X136772450Y-87880705D02*
X136765000Y-87898690D01*
X136765000Y-88014250D01*
X136861401Y-88110651D01*
X136935910Y-88226441D01*
X137043397Y-88299884D01*
X136948559Y-88360910D01*
X136859505Y-88491245D01*
X136765000Y-88585750D01*
X136765000Y-88701310D01*
X136773468Y-88721753D01*
X136760000Y-88788260D01*
X136760000Y-88585750D01*
X136601250Y-88427000D01*
X135627000Y-88427000D01*
X135627000Y-89276250D01*
X135785750Y-89435000D01*
X136251310Y-89435000D01*
X136484699Y-89338327D01*
X136663327Y-89159698D01*
X136752560Y-88944271D01*
X136752560Y-89375000D01*
X136776944Y-89504589D01*
X136752560Y-89625000D01*
X136752560Y-90175000D01*
X136776944Y-90304589D01*
X136752560Y-90425000D01*
X136752560Y-90975000D01*
X136776944Y-91104589D01*
X136752560Y-91225000D01*
X136752560Y-91775000D01*
X136776944Y-91904589D01*
X136752560Y-92025000D01*
X136752560Y-92575000D01*
X136776944Y-92704589D01*
X136752560Y-92825000D01*
X136752560Y-93375000D01*
X136796838Y-93610317D01*
X136935910Y-93826441D01*
X137148110Y-93971431D01*
X137400000Y-94022440D01*
X138727560Y-94022440D01*
X138727560Y-95350000D01*
X138771838Y-95585317D01*
X138910910Y-95801441D01*
X139123110Y-95946431D01*
X139375000Y-95997440D01*
X139704535Y-95997440D01*
X139611673Y-96090301D01*
X139515000Y-96323690D01*
X139515000Y-96814250D01*
X139673750Y-96973000D01*
X140373000Y-96973000D01*
X140373000Y-96953000D01*
X140627000Y-96953000D01*
X140627000Y-96973000D01*
X140647000Y-96973000D01*
X140647000Y-97227000D01*
X140627000Y-97227000D01*
X140627000Y-97247000D01*
X140373000Y-97247000D01*
X140373000Y-97227000D01*
X139673750Y-97227000D01*
X139515000Y-97385750D01*
X139515000Y-97800000D01*
X139112954Y-97800000D01*
X138919147Y-97509946D01*
X138437378Y-97188039D01*
X137869093Y-97075000D01*
X137810907Y-97075000D01*
X137424999Y-97151762D01*
X137424999Y-96464999D01*
X137367147Y-96174160D01*
X137202400Y-95927598D01*
X135309999Y-94035197D01*
X135309999Y-89339251D01*
X135373000Y-89276250D01*
X135373000Y-88427000D01*
X135353000Y-88427000D01*
X135353000Y-88173000D01*
X135373000Y-88173000D01*
X135373000Y-88153000D01*
X135627000Y-88153000D01*
X135627000Y-88173000D01*
X136601250Y-88173000D01*
X136760000Y-88014250D01*
X136760000Y-87814540D01*
X136772450Y-87880705D01*
X136772450Y-87880705D01*
G37*
X136772450Y-87880705D02*
X136765000Y-87898690D01*
X136765000Y-88014250D01*
X136861401Y-88110651D01*
X136935910Y-88226441D01*
X137043397Y-88299884D01*
X136948559Y-88360910D01*
X136859505Y-88491245D01*
X136765000Y-88585750D01*
X136765000Y-88701310D01*
X136773468Y-88721753D01*
X136760000Y-88788260D01*
X136760000Y-88585750D01*
X136601250Y-88427000D01*
X135627000Y-88427000D01*
X135627000Y-89276250D01*
X135785750Y-89435000D01*
X136251310Y-89435000D01*
X136484699Y-89338327D01*
X136663327Y-89159698D01*
X136752560Y-88944271D01*
X136752560Y-89375000D01*
X136776944Y-89504589D01*
X136752560Y-89625000D01*
X136752560Y-90175000D01*
X136776944Y-90304589D01*
X136752560Y-90425000D01*
X136752560Y-90975000D01*
X136776944Y-91104589D01*
X136752560Y-91225000D01*
X136752560Y-91775000D01*
X136776944Y-91904589D01*
X136752560Y-92025000D01*
X136752560Y-92575000D01*
X136776944Y-92704589D01*
X136752560Y-92825000D01*
X136752560Y-93375000D01*
X136796838Y-93610317D01*
X136935910Y-93826441D01*
X137148110Y-93971431D01*
X137400000Y-94022440D01*
X138727560Y-94022440D01*
X138727560Y-95350000D01*
X138771838Y-95585317D01*
X138910910Y-95801441D01*
X139123110Y-95946431D01*
X139375000Y-95997440D01*
X139704535Y-95997440D01*
X139611673Y-96090301D01*
X139515000Y-96323690D01*
X139515000Y-96814250D01*
X139673750Y-96973000D01*
X140373000Y-96973000D01*
X140373000Y-96953000D01*
X140627000Y-96953000D01*
X140627000Y-96973000D01*
X140647000Y-96973000D01*
X140647000Y-97227000D01*
X140627000Y-97227000D01*
X140627000Y-97247000D01*
X140373000Y-97247000D01*
X140373000Y-97227000D01*
X139673750Y-97227000D01*
X139515000Y-97385750D01*
X139515000Y-97800000D01*
X139112954Y-97800000D01*
X138919147Y-97509946D01*
X138437378Y-97188039D01*
X137869093Y-97075000D01*
X137810907Y-97075000D01*
X137424999Y-97151762D01*
X137424999Y-96464999D01*
X137367147Y-96174160D01*
X137202400Y-95927598D01*
X135309999Y-94035197D01*
X135309999Y-89339251D01*
X135373000Y-89276250D01*
X135373000Y-88427000D01*
X135353000Y-88427000D01*
X135353000Y-88173000D01*
X135373000Y-88173000D01*
X135373000Y-88153000D01*
X135627000Y-88153000D01*
X135627000Y-88173000D01*
X136601250Y-88173000D01*
X136760000Y-88014250D01*
X136760000Y-87814540D01*
X136772450Y-87880705D01*
G36*
X144975000Y-87497440D02*
X145252560Y-87497440D01*
X145252560Y-87775000D01*
X145276944Y-87904589D01*
X145252560Y-88025000D01*
X145252560Y-88575000D01*
X145272450Y-88680705D01*
X145265000Y-88698690D01*
X145265000Y-88814250D01*
X145361401Y-88910651D01*
X145435910Y-89026441D01*
X145543397Y-89099884D01*
X145448559Y-89160910D01*
X145359505Y-89291245D01*
X145265000Y-89385750D01*
X145265000Y-89501310D01*
X145273468Y-89521753D01*
X145252560Y-89625000D01*
X145252560Y-90175000D01*
X145272450Y-90280705D01*
X145265000Y-90298690D01*
X145265000Y-90414250D01*
X145361401Y-90510651D01*
X145435910Y-90626441D01*
X145543397Y-90699884D01*
X145448559Y-90760910D01*
X145359505Y-90891245D01*
X145265000Y-90985750D01*
X145265000Y-91101310D01*
X145273468Y-91121753D01*
X145252560Y-91225000D01*
X145252560Y-91775000D01*
X145276944Y-91904589D01*
X145252560Y-92025000D01*
X145252560Y-92575000D01*
X145276944Y-92704589D01*
X145252560Y-92825000D01*
X145252560Y-93102560D01*
X144975000Y-93102560D01*
X144845411Y-93126944D01*
X144725000Y-93102560D01*
X144175000Y-93102560D01*
X144045411Y-93126944D01*
X143925000Y-93102560D01*
X143375000Y-93102560D01*
X143245411Y-93126944D01*
X143125000Y-93102560D01*
X142575000Y-93102560D01*
X142445411Y-93126944D01*
X142325000Y-93102560D01*
X141775000Y-93102560D01*
X141645411Y-93126944D01*
X141525000Y-93102560D01*
X140975000Y-93102560D01*
X140845411Y-93126944D01*
X140725000Y-93102560D01*
X140175000Y-93102560D01*
X140045411Y-93126944D01*
X139925000Y-93102560D01*
X139647440Y-93102560D01*
X139647440Y-92825000D01*
X139623056Y-92695411D01*
X139647440Y-92575000D01*
X139647440Y-92025000D01*
X139623056Y-91895411D01*
X139647440Y-91775000D01*
X139647440Y-91225000D01*
X139623056Y-91095411D01*
X139647440Y-90975000D01*
X139647440Y-90425000D01*
X139623056Y-90295411D01*
X139647440Y-90175000D01*
X139647440Y-89625000D01*
X139623056Y-89495411D01*
X139647440Y-89375000D01*
X139647440Y-88825000D01*
X139627550Y-88719295D01*
X139635000Y-88701310D01*
X139635000Y-88585750D01*
X139538599Y-88489349D01*
X139464090Y-88373559D01*
X139356603Y-88300116D01*
X139451441Y-88239090D01*
X139540495Y-88108755D01*
X139635000Y-88014250D01*
X139635000Y-87898690D01*
X139626532Y-87878247D01*
X139647440Y-87775000D01*
X139647440Y-87497440D01*
X139925000Y-87497440D01*
X140054589Y-87473056D01*
X140175000Y-87497440D01*
X140725000Y-87497440D01*
X140854589Y-87473056D01*
X140975000Y-87497440D01*
X141525000Y-87497440D01*
X141654589Y-87473056D01*
X141775000Y-87497440D01*
X142325000Y-87497440D01*
X142454589Y-87473056D01*
X142575000Y-87497440D01*
X143125000Y-87497440D01*
X143254589Y-87473056D01*
X143375000Y-87497440D01*
X143925000Y-87497440D01*
X144054589Y-87473056D01*
X144175000Y-87497440D01*
X144725000Y-87497440D01*
X144854589Y-87473056D01*
X144975000Y-87497440D01*
X144975000Y-87497440D01*
G37*
X144975000Y-87497440D02*
X145252560Y-87497440D01*
X145252560Y-87775000D01*
X145276944Y-87904589D01*
X145252560Y-88025000D01*
X145252560Y-88575000D01*
X145272450Y-88680705D01*
X145265000Y-88698690D01*
X145265000Y-88814250D01*
X145361401Y-88910651D01*
X145435910Y-89026441D01*
X145543397Y-89099884D01*
X145448559Y-89160910D01*
X145359505Y-89291245D01*
X145265000Y-89385750D01*
X145265000Y-89501310D01*
X145273468Y-89521753D01*
X145252560Y-89625000D01*
X145252560Y-90175000D01*
X145272450Y-90280705D01*
X145265000Y-90298690D01*
X145265000Y-90414250D01*
X145361401Y-90510651D01*
X145435910Y-90626441D01*
X145543397Y-90699884D01*
X145448559Y-90760910D01*
X145359505Y-90891245D01*
X145265000Y-90985750D01*
X145265000Y-91101310D01*
X145273468Y-91121753D01*
X145252560Y-91225000D01*
X145252560Y-91775000D01*
X145276944Y-91904589D01*
X145252560Y-92025000D01*
X145252560Y-92575000D01*
X145276944Y-92704589D01*
X145252560Y-92825000D01*
X145252560Y-93102560D01*
X144975000Y-93102560D01*
X144845411Y-93126944D01*
X144725000Y-93102560D01*
X144175000Y-93102560D01*
X144045411Y-93126944D01*
X143925000Y-93102560D01*
X143375000Y-93102560D01*
X143245411Y-93126944D01*
X143125000Y-93102560D01*
X142575000Y-93102560D01*
X142445411Y-93126944D01*
X142325000Y-93102560D01*
X141775000Y-93102560D01*
X141645411Y-93126944D01*
X141525000Y-93102560D01*
X140975000Y-93102560D01*
X140845411Y-93126944D01*
X140725000Y-93102560D01*
X140175000Y-93102560D01*
X140045411Y-93126944D01*
X139925000Y-93102560D01*
X139647440Y-93102560D01*
X139647440Y-92825000D01*
X139623056Y-92695411D01*
X139647440Y-92575000D01*
X139647440Y-92025000D01*
X139623056Y-91895411D01*
X139647440Y-91775000D01*
X139647440Y-91225000D01*
X139623056Y-91095411D01*
X139647440Y-90975000D01*
X139647440Y-90425000D01*
X139623056Y-90295411D01*
X139647440Y-90175000D01*
X139647440Y-89625000D01*
X139623056Y-89495411D01*
X139647440Y-89375000D01*
X139647440Y-88825000D01*
X139627550Y-88719295D01*
X139635000Y-88701310D01*
X139635000Y-88585750D01*
X139538599Y-88489349D01*
X139464090Y-88373559D01*
X139356603Y-88300116D01*
X139451441Y-88239090D01*
X139540495Y-88108755D01*
X139635000Y-88014250D01*
X139635000Y-87898690D01*
X139626532Y-87878247D01*
X139647440Y-87775000D01*
X139647440Y-87497440D01*
X139925000Y-87497440D01*
X140054589Y-87473056D01*
X140175000Y-87497440D01*
X140725000Y-87497440D01*
X140854589Y-87473056D01*
X140975000Y-87497440D01*
X141525000Y-87497440D01*
X141654589Y-87473056D01*
X141775000Y-87497440D01*
X142325000Y-87497440D01*
X142454589Y-87473056D01*
X142575000Y-87497440D01*
X143125000Y-87497440D01*
X143254589Y-87473056D01*
X143375000Y-87497440D01*
X143925000Y-87497440D01*
X144054589Y-87473056D01*
X144175000Y-87497440D01*
X144725000Y-87497440D01*
X144854589Y-87473056D01*
X144975000Y-87497440D01*
M02*
